#N canvas 377 346 562 300 12;
#X floatatom 41 45 8 0 0 2 frequency - - 0;
#X obj 86 190 dac~;
#X obj 41 140 clip~ -1 1;
#X floatatom 123 105 8 0 0 2 y\ position - - 0;
#X obj 123 140 clip~ -1 1;
#X obj 41 100 phasor~;
#X connect 0 0 5 0;
#X connect 2 0 1 0;
#X connect 3 0 4 0;
#X connect 4 0 1 1;
#X connect 5 0 2 0;
