#N canvas 375 -735 791 305 12;
#X floatatom 22 54 8 0 0 1 frequency - - 0;
#X obj 57 253 dac~;
#X obj 22 199 clip~ -1 1;
#X obj 103 200 clip~ -1 1;
#X floatatom 321 54 8 0 0 1 frequency - - 0;
#X obj 321 105 expr~ if($v1 < 0.5 \, $v1 \, -$v1+1);
#X obj 321 131 *~ 4;
#X obj 320 160 -~ 1;
#X obj 22 105 *~ 2;
#X obj 22 131 -~ 1;
#X text 64 107 rerange the phasor to go from -1 1;
#X obj 22 79 phasor~ 100;
#X obj 321 79 phasor~ 100.1;
#X text 362 131 This is the math to convert a sawtooth wave into a
triangle wave. Vanilla pd doesn't have a built in triangle wave \,
so we have to make one ourself. There are many libraries that can do
this for you \, but for the sake of the tutorial \, I'm not using any
libraries.;
#X connect 0 0 11 0;
#X connect 2 0 1 0;
#X connect 3 0 1 1;
#X connect 4 0 12 0;
#X connect 5 0 6 0;
#X connect 6 0 7 0;
#X connect 7 0 3 0;
#X connect 8 0 9 0;
#X connect 9 0 2 0;
#X connect 11 0 8 0;
#X connect 12 0 5 0;
