#N canvas 341 136 784 496 12;
#X obj 325 418 dac~;
#X obj 261 370 clip~ -1 1;
#X obj 373 370 clip~ -1 1;
#X floatatom 261 62 8 0 0 1 frequency - - 0;
#X obj 261 153 cos~;
#X obj 330 127 +~ 0.25;
#X obj 330 153 cos~;
#X text 388 128 offset by a quarter phase to make it a sine wave;
#X obj 261 229 *~ 1;
#X obj 330 229 *~ 1;
#X floatatom 345 190 8 0 0 1 size - - 0;
#X obj 330 329 +~, f 4;
#X obj 261 329 +~, f 4;
#X obj 261 87 phasor~ 100;
#X floatatom 346 260 8 0 0 1 x_position - - 0;
#X floatatom 356 290 8 0 0 1 y_position - - 0;
#X text 73 153 x = r * cost(t) + xpos;
#X text 369 153 y = r * sin(t) + ypos;
#X connect 1 0 0 0;
#X connect 2 0 0 1;
#X connect 3 0 13 0;
#X connect 4 0 8 0;
#X connect 5 0 6 0;
#X connect 6 0 9 0;
#X connect 8 0 12 0;
#X connect 9 0 11 0;
#X connect 10 0 9 1;
#X connect 10 0 8 1;
#X connect 11 0 2 0;
#X connect 12 0 1 0;
#X connect 13 0 4 0;
#X connect 13 0 5 0;
#X connect 14 0 12 1;
#X connect 15 0 11 1;
