#N canvas 341 136 500 456 12;
#X obj 104 404 dac~;
#X floatatom 60 108 8 0 0 1 frequency - - 0;
#X obj 60 199 cos~;
#X obj 129 173 +~ 0.25;
#X obj 129 199 cos~;
#X obj 60 275 +~, f 4;
#X obj 129 275 +~, f 5;
#X obj 60 133 phasor~ 200;
#X floatatom 224 263 8 0 0 2 clip\ range - - 0;
#X obj 224 288 * -1;
#X obj 60 366 clip~ -0.5 0.5;
#X obj 172 366 clip~ -0.5 0.5;
#X text 26 42 By changing the point at which we clip the signal \,
we can turn a circle into a square.;
#X obj 129 235 *~ 1;
#X obj 60 234 *~ 1;
#X connect 1 0 7 0;
#X connect 2 0 14 0;
#X connect 3 0 4 0;
#X connect 4 0 13 0;
#X connect 5 0 10 0;
#X connect 6 0 11 0;
#X connect 7 0 2 0;
#X connect 7 0 3 0;
#X connect 8 0 9 0;
#X connect 8 0 10 2;
#X connect 8 0 11 2;
#X connect 9 0 10 1;
#X connect 9 0 11 1;
#X connect 10 0 0 0;
#X connect 11 0 0 1;
#X connect 13 0 6 0;
#X connect 14 0 5 0;
