#N canvas 341 136 500 456 12;
#X obj 104 404 dac~;
#X floatatom 60 108 8 0 0 1 frequency - - 0;
#X obj 60 199 cos~;
#X obj 129 173 +~ 0.25;
#X obj 129 199 cos~;
#X obj 60 275 +~, f 4;
#X obj 129 275 +~, f 5;
#X floatatom 232 109 8 0 0 1 frequency - - 0;
#X obj 232 200 cos~;
#X obj 301 174 +~ 0.25;
#X obj 301 200 cos~;
#X obj 232 276 +~, f 4;
#X obj 301 276 +~, f 5;
#X obj 172 366 clip~ -1 1;
#X obj 60 366 clip~ -1 1;
#X obj 60 234 *~ 0.5;
#X obj 129 235 *~ 0.5;
#X obj 232 235 *~ 0.5;
#X obj 301 236 *~ 0.5;
#X obj 60 133 phasor~ 200;
#X obj 232 134 phasor~ 333;
#X text 48 30 By sending the signal from two circles out to the scope
at the same time \, we can create these cool patterns known as lissajous
figures.;
#X connect 1 0 19 0;
#X connect 2 0 15 0;
#X connect 3 0 4 0;
#X connect 4 0 16 0;
#X connect 5 0 14 0;
#X connect 6 0 13 0;
#X connect 7 0 20 0;
#X connect 8 0 17 0;
#X connect 9 0 10 0;
#X connect 10 0 18 0;
#X connect 11 0 14 0;
#X connect 12 0 13 0;
#X connect 13 0 0 1;
#X connect 14 0 0 0;
#X connect 15 0 5 0;
#X connect 16 0 6 0;
#X connect 17 0 11 0;
#X connect 18 0 12 0;
#X connect 19 0 2 0;
#X connect 19 0 3 0;
#X connect 20 0 8 0;
#X connect 20 0 9 0;
