#N canvas 341 136 894 538 12;
#X obj 134 290 dac~;
#X floatatom 134 77 8 0 0 1 frequency - - 0;
#X obj 134 102 phasor~;
#X text 120 38 https://www.statisticshowto.com/butterfly-curve-graphs-equations/
, f 68;
#X obj 37 37 loadbang;
#X msg 37 75 3.14159;
#X obj 37 101 value pi;
#X obj 134 207 expr~ sin($v1) * (exp(cos($v1)) - 2*cos(4*$v1) - pow(sin($v1/12.0)
\, 5)), f 72;
#X obj 184 175 expr~ cos($v1) * (exp(cos($v1)) - 2*cos(4*$v1) - pow(sin($v1/12.0)
\, 5)), f 72;
#X obj 134 135 expr~ $v1 * 12 * pi;
#X obj 134 252 *~ 0.2;
#X obj 184 253 *~ 0.2;
#X connect 1 0 2 0;
#X connect 2 0 9 0;
#X connect 4 0 5 0;
#X connect 5 0 6 0;
#X connect 7 0 10 0;
#X connect 8 0 11 0;
#X connect 9 0 7 0;
#X connect 9 0 8 0;
#X connect 10 0 0 0;
#X connect 11 0 0 1;
