#N canvas 699 184 445 400 12;
#N canvas 179 204 178 167 circle~ 0;
#X obj 14 11 inlet~;
#X obj 14 96 cos~;
#X obj 14 126 outlet~ x;
#X obj 89 126 outlet~ y;
#X obj 89 66 +~ 0.25;
#X obj 89 96 cos~;
#X connect 0 0 4 0;
#X connect 0 0 1 0;
#X connect 1 0 2 0;
#X connect 4 0 5 0;
#X connect 5 0 3 0;
#X restore 116 158 pd circle~;
#X obj 116 118 phasor~;
#X obj 273 190 sig~;
#X obj 116 218 clip~ -1 1;
#X obj 194 218 clip~ -1 1;
#X obj 273 218 clip~ -1 1;
#X obj 116 278 dac~ 1 2 3;
#X floatatom 116 86 5 0 0 1 frequency - - 0;
#X floatatom 273 161 5 0 0 1 brightness - - 0;
#X connect 0 0 3 0;
#X connect 0 1 4 0;
#X connect 1 0 0 0;
#X connect 2 0 5 0;
#X connect 3 0 6 0;
#X connect 4 0 6 1;
#X connect 5 0 6 2;
#X connect 7 0 1 0;
#X connect 8 0 2 0;
