#N canvas 563 193 260 408 12;
#N canvas 701 184 177 167 circle~ 0;
#X obj 6 6 inlet~;
#X obj 6 91 cos~;
#X obj 6 121 outlet~ x;
#X obj 81 121 outlet~ y;
#X obj 81 61 +~ 0.25;
#X obj 81 91 cos~;
#X connect 0 0 4 0;
#X connect 0 0 1 0;
#X connect 1 0 2 0;
#X connect 4 0 5 0;
#X connect 5 0 3 0;
#X restore 39 277 pd circle~;
#X obj 39 67 phasor~;
#X obj 39 307 clip~ -1 1;
#X obj 121 307 clip~ -1 1;
#X obj 39 347 dac~ 1 2;
#X obj 39 139 pow~ 2;
#X floatatom 78 110 5 0 0 1 brightness - - 12;
#X obj 39 198 +~;
#X obj 39 227 wrap~;
#X obj 57 168 phasor~ 0.05;
#X floatatom 39 38 5 0 0 1 frequency - - 12;
#X connect 0 0 2 0;
#X connect 0 1 3 0;
#X connect 1 0 5 0;
#X connect 2 0 4 0;
#X connect 3 0 4 1;
#X connect 5 0 7 0;
#X connect 6 0 5 1;
#X connect 7 0 8 0;
#X connect 8 0 0 0;
#X connect 9 0 7 1;
#X connect 10 0 1 0;
