#N canvas 262 171 743 389 12;
#N canvas 121 146 170 156 circle~ 0;
#X obj 12 6 inlet~;
#X obj 12 91 cos~;
#X obj 12 121 outlet~ x;
#X obj 87 121 outlet~ y;
#X obj 87 61 +~ 0.25;
#X obj 87 91 cos~;
#X connect 0 0 4 0;
#X connect 0 0 1 0;
#X connect 1 0 2 0;
#X connect 4 0 5 0;
#X connect 5 0 3 0;
#X restore 38 202 pd circle~;
#X obj 121 120 phasor~;
#X obj 38 232 clip~ -1 1;
#X obj 120 232 clip~ -1 1;
#X obj 210 244 clip~ -1 1;
#X obj 38 292 dac~ 1 2 3;
#X obj 210 213 expr~ 1-$v1;
#X obj 210 178 expr~ $v1 < $f2;
#X floatatom 121 96 5 0 0 1 frequency - - 0;
#X floatatom 312 154 5 0 1 1 phase_cutoff - - 0;
#X text 301 211 flip the boolean (true or false) output of [expr~]. 0-1 flip and become their opposites.;
#X connect 0 0 2 0;
#X connect 0 1 3 0;
#X connect 1 0 0 0;
#X connect 1 0 7 0;
#X connect 2 0 5 0;
#X connect 3 0 5 1;
#X connect 4 0 5 2;
#X connect 6 0 4 0;
#X connect 7 0 6 0;
#X connect 8 0 1 0;
#X connect 9 0 7 1;
