#N canvas 699 188 453 396 12;
#N canvas 150 175 163 162 circle~ 0;
#X obj 7 9 inlet~;
#X obj 7 94 cos~;
#X obj 7 124 outlet~ x;
#X obj 82 124 outlet~ y;
#X obj 82 64 +~ 0.25;
#X obj 82 94 cos~;
#X connect 0 0 4 0;
#X connect 0 0 1 0;
#X connect 1 0 2 0;
#X connect 4 0 5 0;
#X connect 5 0 3 0;
#X restore 44 109 pd circle~;
#X obj 44 75 phasor~;
#X obj 44 139 clip~ -1 1;
#X obj 126 139 clip~ -1 1;
#X obj 131 259 clip~ -1 1;
#X obj 44 287 dac~ 1 2 3;
#X obj 131 229 expr~ 1-$v1;
#X obj 131 199 expr~ $v1 < $v2;
#X floatatom 44 48 5 0 0 1 frequency - - 0;
#X floatatom 233 172 5 0 0 1 location - - 12;
#X connect 0 0 2 0;
#X connect 0 1 3 0;
#X connect 1 0 0 0;
#X connect 2 0 5 0;
#X connect 2 0 7 0;
#X connect 3 0 5 1;
#X connect 4 0 5 2;
#X connect 6 0 4 0;
#X connect 7 0 6 0;
#X connect 8 0 1 0;
#X connect 9 0 7 1;
