#N canvas 280 140 845 448 12;
#N canvas 179 204 450 300 circle~ 0;
#X obj 119 124 inlet~;
#X obj 119 209 cos~;
#X obj 119 239 outlet~ x;
#X obj 194 239 outlet~ y;
#X obj 194 179 +~ 0.25;
#X obj 194 209 cos~;
#X connect 0 0 4 0;
#X connect 0 0 1 0;
#X connect 1 0 2 0;
#X connect 4 0 5 0;
#X connect 5 0 3 0;
#X restore 22 123 pd circle~;
#X obj 22 91 phasor~;
#X obj 22 183 clip~ -1 1;
#X obj 104 183 clip~ -1 1;
#X obj 204 370 clip~ -1 1;
#X obj 22 413 dac~ 1 2 3;
#X obj 204 265 pow~ 2;
#X floatatom 204 18 5 0 0 1 brightness - - 12;
#X obj 204 205 *~;
#X obj 422 244 *~;
#X obj 440 219 expr !$f1;
#X obj 204 45 osc~;
#X floatatom 22 60 5 0 0 1 frequency - - 0;
#X floatatom 231 82 5 0 0 1 in_start - - 12;
#X floatatom 239 107 5 0 0 1 in_end - - 12;
#X floatatom 356 83 5 0 0 1 out_start - - 12;
#X floatatom 364 108 5 0 0 1 out_end - - 12;
#X floatatom 392 282 5 0 0 1 out_start - - 12;
#X floatatom 404 306 5 0 0 1 out_end - - 12;
#X obj 204 333 expr~ $v1 * ($f3 - $f2) + $f2;
#X floatatom 243 238 5 0 0 1 exponent_or_gamma - - 0;
#X obj 440 171 tgl 21 0 empty empty switch_mapping_style 25 10 0 12 #fcfcfc #000000 #000000 0 1;
#N canvas 554 223 619 300 map~ 0;
#X obj 34 189 expr~ ($v1 - $f2) / ($f3 - $f2) * ($f5 - $f4) + $f4;
#X obj 34 265 outlet~;
#X obj 34 30 inlet~;
#X obj 122 68 inlet in_start;
#X obj 211 98 inlet in_end;
#X obj 299 128 inlet out_start;
#X obj 388 158 inlet out_end;
#X connect 0 0 1 0;
#X connect 2 0 0 0;
#X connect 3 0 0 1;
#X connect 4 0 0 2;
#X connect 5 0 0 3;
#X connect 6 0 0 4;
#X restore 204 141 pd map~;
#X f 16;
#X text 329 144 this is just the mapping equation from before put into a subpatch.;
#X text 421 336 simplified version of the linear mapping function. When in_start and in_end are 0 and 1 \, the equation simplifies to this., f 56;
#X connect 0 0 2 0;
#X connect 0 1 3 0;
#X connect 1 0 0 0;
#X connect 2 0 5 0;
#X connect 3 0 5 1;
#X connect 4 0 5 2;
#X connect 6 0 19 0;
#X connect 7 0 11 0;
#X connect 8 0 6 0;
#X connect 9 0 19 0;
#X connect 10 0 9 1;
#X connect 11 0 22 0;
#X connect 12 0 1 0;
#X connect 13 0 22 1;
#X connect 14 0 22 2;
#X connect 15 0 22 3;
#X connect 16 0 22 4;
#X connect 17 0 19 1;
#X connect 18 0 19 2;
#X connect 19 0 4 0;
#X connect 20 0 6 1;
#X connect 21 0 10 0;
#X connect 21 0 8 1;
#X connect 22 0 8 0;
