#N canvas 215 117 471 436 12;
#X obj 81 382 dac~;
#X obj 54 338 clip~ -1 1;
#X obj 134 338 clip~ -1 1;
#N canvas 60 88 378 228 circle~ 0;
#X obj 28 28 inlet~;
#X obj 28 187 outlet~;
#X obj 91 187 outlet~;
#X obj 28 153 cos~;
#X obj 91 125 +~ 0.25;
#X obj 91 151 cos~;
#X text 156 49 x = r * cos(ø);
#X text 156 69 y = r * sin(ø);
#X text 151 123 sine wave is just a quarter phase off from a cosine wave, f 29;
#X connect 0 0 3 0;
#X connect 0 0 4 0;
#X connect 3 0 1 0;
#X connect 4 0 5 0;
#X connect 5 0 2 0;
#X restore 76 78 pd circle~;
#X obj 163 282 +~;
#X obj 43 282 +~;
#X obj 76 35 phasor~ 120;
#X floatatom 76 10 5 0 0 1 main_frequency - - 0;
#X obj 43 122 *~ 0.25;
#X obj 163 122 *~ 0.25;
#X floatatom 168 84 5 0 0 1 circle_size - - 0;
#X floatatom 181 161 5 0 0 1 offset_freq - - 0;
#X obj 181 186 phasor~;
#X obj 181 212 *~ 10;
#X obj 61 246 tabread~ xpts;
#X obj 181 247 tabread~ ypts;
#N canvas 548 131 651 447 gen_offsets 0;
#X msg 75 99 10;
#X obj 75 126 until;
#X obj 15 172 random 201;
#X obj 15 198 / 100;
#X obj 15 224 - 1;
#X obj 15 304 list store;
#X msg 15 271 append \$1;
#X obj 52 55 t b b b;
#X obj 25 350 print xpts set to;
#X obj 155 172 random 201;
#X obj 155 198 / 100;
#X obj 155 224 - 1;
#X obj 155 304 list store;
#X msg 155 271 append \$1;
#X obj 165 350 print ypts set to;
#X obj 15 381 array set xpts;
#X obj 155 380 array set ypts;
#X obj 52 20 inlet bang;
#X text 141 11 generates a random list of 10 numbers ranging from -1 to 1, f 30;
#X obj 393 43 array define ypts 10;
#X obj 393 13 array define xpts 10;
#X text 113 54 order matters;
#X text 233 305 build and output the list of points \, bang to right inlet clears it \, bang to left inlet sends it out.;
#X text 132 98 do it 10 times;
#X text 247 172 random number from 0 to 200;
#X text 247 199 [0 to 200] / 100 = [0 to 2];
#X text 247 222 [0 to 2] - 1 = [-1 to 1];
#X connect 0 0 1 0;
#X connect 1 0 2 0;
#X connect 1 0 9 0;
#X connect 2 0 3 0;
#X connect 3 0 4 0;
#X connect 4 0 6 0;
#X connect 5 0 8 0;
#X connect 5 0 15 0;
#X connect 6 0 5 0;
#X connect 7 0 5 0;
#X connect 7 0 12 0;
#X connect 7 1 0 0;
#X connect 7 2 5 1;
#X connect 7 2 12 1;
#X connect 9 0 10 0;
#X connect 10 0 11 0;
#X connect 11 0 13 0;
#X connect 12 0 14 0;
#X connect 12 0 16 0;
#X connect 13 0 12 0;
#X connect 17 0 7 0;
#X restore 307 191 pd gen_offsets;
#X obj 307 166 bng 21 250 50 0 empty empty gen_offsets 25 9 0 12 #fcfcfc #000000 #000000;
#X connect 1 0 0 0;
#X connect 2 0 0 1;
#X connect 3 0 8 0;
#X connect 3 1 9 0;
#X connect 4 0 2 0;
#X connect 5 0 1 0;
#X connect 6 0 3 0;
#X connect 7 0 6 0;
#X connect 8 0 5 0;
#X connect 9 0 4 0;
#X connect 10 0 8 1;
#X connect 10 0 9 1;
#X connect 11 0 12 0;
#X connect 12 0 13 0;
#X connect 13 0 14 0;
#X connect 13 0 15 0;
#X connect 14 0 5 1;
#X connect 15 0 4 1;
#X connect 17 0 16 0;
