#N canvas 247 35 728 544 12;
#X obj 253 506 dac~;
#X obj 209 445 clip~ -1 1;
#X obj 287 445 clip~ -1 1;
#X obj 23 40 phasor~ 30;
#X obj 193 139 clip~ 0.5 1;
#X obj 23 139 clip~ 0 0.5;
#X obj 209 405 *~;
#X obj 305 410 *~;
#X obj 376 122 expr~ if(0 <= $v1 && $v1 < 0.5 \, 1 \, 0) \; if(0.5 <= $v1 && $v1 <= 1 \, 1 \, 0);
#X obj 23 165 *~ 2;
#X obj 193 165 +~ -0.5;
#X obj 193 193 *~ 2;
#X obj 249 405 *~;
#X obj 345 410 *~;
#N canvas 629 362 242 273 circle~ 0;
#X obj 53 29 inlet~;
#X obj 53 115 cos~;
#X obj 118 90 +~ 0.25;
#X obj 118 115 cos~;
#X obj 53 201 outlet~;
#X obj 118 201 outlet~;
#X connect 0 0 1 0;
#X connect 0 0 2 0;
#X connect 1 0 4 0;
#X connect 2 0 3 0;
#X connect 3 0 5 0;
#X restore 193 246 pd circle~;
#X obj 193 300 +~ 0.5;
#X obj 193 272 *~ 0.3;
#X obj 260 272 *~ 0.3;
#N canvas 629 362 242 273 circle~ 0;
#X obj 53 29 inlet~;
#X obj 53 115 cos~;
#X obj 118 90 +~ 0.25;
#X obj 118 115 cos~;
#X obj 53 201 outlet~;
#X obj 118 201 outlet~;
#X connect 0 0 1 0;
#X connect 0 0 2 0;
#X connect 1 0 4 0;
#X connect 2 0 3 0;
#X connect 3 0 5 0;
#X restore 23 246 pd circle~;
#X obj 23 272 *~ 0.3;
#X obj 90 272 *~ 0.3;
#X obj 23 300 -~ 0.5;
#N canvas 121 146 450 300 (subpatch) 0;
#X obj 82 57 inlet~;
#X obj 82 83 outlet~;
#X connect 0 0 1 0;
#X restore 376 239 pd;
#N canvas 121 146 450 300 (subpatch) 0;
#X obj 82 57 inlet~;
#X obj 82 83 outlet~;
#X connect 0 0 1 0;
#X restore 639 239 pd;
#X text 110 39 main phase we're cutting into two pieces;
#X text 375 83 check where we are in the main phase & scale the corresponding circle by 0 or 1;
#X text 62 166 rerange first half (0 to 0.5) to (0 to 1), f 16;
#X text 253 167 rerange the 2nd half (0.5 to 1) to (0 to 1), f 16;
#X text 406 197 the subpatch doesn't do anything \, just cleans up the patch cables a little bit \, so they don't overlap as much., f 21;
#X connect 1 0 0 0;
#X connect 2 0 0 1;
#X connect 3 0 5 0;
#X connect 3 0 4 0;
#X connect 3 0 8 0;
#X connect 4 0 10 0;
#X connect 5 0 9 0;
#X connect 6 0 1 0;
#X connect 7 0 1 0;
#X connect 8 0 22 0;
#X connect 8 1 23 0;
#X connect 9 0 18 0;
#X connect 10 0 11 0;
#X connect 11 0 14 0;
#X connect 12 0 2 0;
#X connect 13 0 2 0;
#X connect 14 0 16 0;
#X connect 14 1 17 0;
#X connect 15 0 7 0;
#X connect 16 0 15 0;
#X connect 17 0 13 0;
#X connect 18 0 19 0;
#X connect 18 1 20 0;
#X connect 19 0 21 0;
#X connect 20 0 12 0;
#X connect 21 0 6 0;
#X connect 22 0 6 1;
#X connect 22 0 12 1;
#X connect 23 0 7 1;
#X connect 23 0 13 1;
