#N canvas 240 52 795 448 12;
#X obj 20 407 dac~;
#X obj 20 88 phasor~ 50;
#X obj 20 370 clip~ -1 1;
#X obj 98 370 clip~ -1 1;
#X obj 20 154 *~ 3;
#X floatatom 118 110 8 0 0 1 num_dashes - - 0;
#X obj 99 208 wrap~;
#X floatatom 20 51 8 0 0 0 - - - 0;
#N canvas 0 22 450 278 (subpatch) 0;
#X array dash_lengths 5 float 3;
#A 0 0.661652 0.511277 0.390976 0.300751 0.210526;
#X coords 0 1 5 0 200 133 1 0 0;
#X restore 548 134 graph;
#X obj 179 208 tabread~ dash_lengths;
#X obj 20 254 expr~ (floor($v1) + $v2 * $v3) / $f4;
#X msg 118 79 3;
#X obj 118 50 loadbang;
#X text 105 299 Once we understand how the expression is constructed
\, tidying it up a single expression using [expr~] helps to make the
patch easier to read.;
#X text 354 28 dash_lengths is an array holding the lengths of the
dashes. It needn't be graphical like this \, however. We could also
use [array define dash_lengths 3] to create the array. Click and drag
on the lines in the graph to change the length of each dash individually.
;
#N canvas 561 120 615 300 circle~ 0;
#X obj 45 39 inlet~ phase;
#X text 142 40 we don't have to provide a label to the inlet but it's
nice to do so that we have an idea of what it's purpose is .;
#X obj 45 121 cos~;
#X obj 101 94 +~ 0.25;
#X obj 101 120 cos~;
#X obj 45 237 outlet~ x;
#X obj 101 186 outlet~ y;
#X text 164 109 draw the circle x = cos(t) \, y = sin(t);
#X text 136 216 ditto for outlets \, adding these x and y labels helps
to keep the purpose of the outlets clear.;
#X connect 0 0 2 0;
#X connect 0 0 3 0;
#X connect 2 0 5 0;
#X connect 3 0 4 0;
#X connect 4 0 6 0;
#X restore 20 327 pd circle~;
#N canvas 740 287 272 117 array_management 0;
#X obj 45 36 inlet num_dashes;
#X obj 45 62 array size dash_lengths;
#X connect 0 0 1 0;
#X restore 155 138 pd array_management;
#X connect 1 0 4 0;
#X connect 2 0 0 0;
#X connect 3 0 0 1;
#X connect 4 0 6 0;
#X connect 4 0 9 0;
#X connect 4 0 10 0;
#X connect 5 0 4 1;
#X connect 5 0 10 3;
#X connect 5 0 16 0;
#X connect 6 0 10 1;
#X connect 7 0 1 0;
#X connect 9 0 10 2;
#X connect 10 0 15 0;
#X connect 11 0 5 0;
#X connect 12 0 11 0;
#X connect 15 0 2 0;
#X connect 15 1 3 0;
