#N canvas 562 96 527 483 12;
#X obj 20 447 dac~;
#X obj 20 410 clip~ -1 1;
#X obj 98 410 clip~ -1 1;
#N canvas 561 120 615 300 circle 0;
#X obj 45 39 inlet~ phase;
#X text 142 40 we don't have to provide a label to the inlet but it's
nice to do so that we have an idea of what it's purpose is .;
#X obj 45 121 cos~;
#X obj 101 94 +~ 0.25;
#X obj 101 120 cos~;
#X obj 45 237 outlet~ x;
#X obj 101 186 outlet~ y;
#X text 164 109 draw the circle x = cos(t) \, y = sin(t);
#X text 136 216 ditto for outlets \, adding these x and y labels helps
to keep the purpose of the outlets clear.;
#X connect 0 0 2 0;
#X connect 0 0 3 0;
#X connect 2 0 5 0;
#X connect 3 0 4 0;
#X connect 4 0 6 0;
#X restore 20 377 pd circle;
#X obj 20 96 *~ 3;
#X obj 20 139 expr~ floor($v1);
#X obj 20 345 /~ 3;
#X obj 165 139 wrap~;
#X obj 20 311 +~, f 4;
#X floatatom 194 236 8 0 0 1 dash_length - - 0;
#X floatatom 63 58 8 0 0 1 num_dashes - - 0;
#X obj 20 18 phasor~ 50;
#X obj 20 245 +~, f 6;
#X obj 77 207 *~ 0.5;
#X obj 77 181 osc~ 51;
#X obj 165 264 *~ 0.5;
#X text 142 181 <-------- This oscillator is what produces the wiggle.
;
#X connect 1 0 0 0;
#X connect 2 0 0 1;
#X connect 3 0 1 0;
#X connect 3 1 2 0;
#X connect 4 0 5 0;
#X connect 4 0 7 0;
#X connect 5 0 12 0;
#X connect 6 0 3 0;
#X connect 7 0 15 0;
#X connect 8 0 6 0;
#X connect 9 0 15 1;
#X connect 10 0 4 1;
#X connect 10 0 6 1;
#X connect 11 0 4 0;
#X connect 12 0 8 0;
#X connect 13 0 12 1;
#X connect 14 0 13 0;
#X connect 15 0 8 1;
