#N canvas 383 87 474 625 12;
#X obj 25 527 dac~;
#X obj 25 480 clip~ -1 1;
#X obj 103 480 clip~ -1 1;
#X obj 25 28 phasor~ 50;
#N canvas 110 143 450 300 trace~ 0;
#X obj 93 37 inlet~ phase;
#X obj 93 93 *~ 1;
#X obj 93 139 +~ 0;
#X obj 93 179 wrap~;
#X obj 93 211 outlet~ phase;
#X obj 193 37 inlet length;
#X obj 293 37 inlet offset;
#X connect 0 0 1 0;
#X connect 1 0 2 0;
#X connect 2 0 3 0;
#X connect 3 0 4 0;
#X connect 5 0 1 1;
#X connect 6 0 2 1;
#X restore 25 165 pd trace~;
#N canvas 561 120 615 300 circle~ 0;
#X obj 45 39 inlet~ phase;
#X text 142 40 we don't have to provide a label to the inlet but it's
nice to do so that we have an idea of what it's purpose is .;
#X obj 45 121 cos~;
#X obj 101 94 +~ 0.25;
#X obj 101 120 cos~;
#X obj 45 237 outlet~ x;
#X obj 101 186 outlet~ y;
#X text 164 109 draw the circle x = cos(t) \, y = sin(t);
#X text 136 216 ditto for outlets \, adding these x and y labels helps
to keep the purpose of the outlets clear.;
#X connect 0 0 2 0;
#X connect 0 0 3 0;
#X connect 2 0 5 0;
#X connect 3 0 4 0;
#X connect 4 0 6 0;
#X restore 25 397 pd circle~;
#N canvas 639 112 587 292 dash~ 0;
#X obj 31 30 inlet~ phase;
#X obj 142 31 inlet num_dashes;
#X obj 282 31 inlet dash_length;
#X obj 31 164 expr~ (floor($v1) + $v2 * $f3) / $f4;
#X obj 110 132 wrap~;
#X obj 31 230 outlet~ phase;
#X obj 324 82 loadbang;
#X msg 324 108 2;
#X obj 31 86 *~ 2;
#X text 357 108 prevent divide by zero warning;
#X connect 0 0 8 0;
#X connect 1 0 3 3;
#X connect 1 0 8 1;
#X connect 2 0 3 2;
#X connect 3 0 5 0;
#X connect 4 0 3 1;
#X connect 6 0 7 0;
#X connect 7 0 3 3;
#X connect 7 0 8 1;
#X connect 8 0 4 0;
#X connect 8 0 3 0;
#X restore 25 271 pd dash~;
#X floatatom 50 98 8 0 0 1 length - - 0;
#X floatatom 75 130 8 0 0 1 offset - - 0;
#X floatatom 46 202 8 0 0 1 num_dashes - - 0;
#X floatatom 68 232 8 0 0 1 dash_length - - 0;
#N canvas 110 143 450 300 trace~ 0;
#X obj 93 37 inlet~ phase;
#X obj 93 93 *~ 1;
#X obj 93 139 +~ 0;
#X obj 93 179 wrap~;
#X obj 93 211 outlet~ phase;
#X obj 193 37 inlet length;
#X obj 293 37 inlet offset;
#X connect 0 0 1 0;
#X connect 1 0 2 0;
#X connect 2 0 3 0;
#X connect 3 0 4 0;
#X connect 5 0 1 1;
#X connect 6 0 2 1;
#X restore 255 275 pd trace~;
#N canvas 639 112 587 292 dash~ 0;
#X obj 31 30 inlet~ phase;
#X obj 142 31 inlet num_dashes;
#X obj 282 31 inlet dash_length;
#X obj 31 164 expr~ (floor($v1) + $v2 * $f3) / $f4;
#X obj 110 132 wrap~;
#X obj 31 230 outlet~ phase;
#X obj 324 82 loadbang;
#X msg 324 108 2;
#X obj 31 86 *~ 2;
#X text 357 108 prevent divide by zero warning;
#X connect 0 0 8 0;
#X connect 1 0 3 3;
#X connect 1 0 8 1;
#X connect 2 0 3 2;
#X connect 3 0 5 0;
#X connect 4 0 3 1;
#X connect 6 0 7 0;
#X connect 7 0 3 3;
#X connect 7 0 8 1;
#X connect 8 0 4 0;
#X connect 8 0 3 0;
#X restore 255 171 pd dash~;
#X floatatom 280 208 8 0 0 1 length - - 0;
#X floatatom 305 240 8 0 0 1 offset - - 0;
#X floatatom 276 102 8 0 0 1 num_dashes - - 0;
#X floatatom 298 132 8 0 0 1 dash_length - - 0;
#X obj 107 273 tgl 24 0 empty empty switch 30 11 0 12 #464d5b #b0c4ed
#7e838e 0 1;
#X obj 107 302 expr !$f1;
#X obj 25 354 *~, f 4;
#X obj 75 354 *~, f 4;
#X connect 1 0 0 0;
#X connect 2 0 0 1;
#X connect 3 0 4 0;
#X connect 3 0 12 0;
#X connect 4 0 6 0;
#X connect 5 0 1 0;
#X connect 5 1 2 0;
#X connect 6 0 19 0;
#X connect 7 0 4 1;
#X connect 8 0 4 2;
#X connect 9 0 6 1;
#X connect 10 0 6 2;
#X connect 11 0 20 0;
#X connect 12 0 11 0;
#X connect 13 0 11 1;
#X connect 14 0 11 2;
#X connect 15 0 12 1;
#X connect 16 0 12 2;
#X connect 17 0 18 0;
#X connect 17 0 19 1;
#X connect 18 0 20 1;
#X connect 19 0 5 0;
#X connect 20 0 5 0;
