#N canvas 157 80 1052 567 12;
#X declare -lib osci;
#X floatatom 512 53 8 0 0 1 phase - - 0;
#X obj 198 214 cos~;
#X obj 276 341 dac~;
#X obj 159 185 *~ 2;
#X obj 159 211 -~ 1;
#X obj 198 157 +~ 0.25;
#X obj 198 183 wrap~;
#X obj 189 52 osci/cut_equal~;
#X obj 617 9 declare -lib osci;
#X obj 159 274 osci/cut_idx~, f 14;
#X obj 561 197 cos~;
#X obj 512 175 *~ 2;
#X obj 512 201 -~ 1;
#X obj 561 140 +~ 0.25;
#X obj 561 166 wrap~;
#X obj 338 255 osci/cut_idx~;
#X obj 338 192 osci/circle~ 0 0 0.04;
#X obj 512 140 wrap~;
#X obj 189 26 phasor~ 50;
#X obj 251 111 osci/n~;
#X text 8 182 rerange phasor from 0 -> 1 to -1 -> 1, f 19;
#X obj 512 98 osci/ramp~ 15;
#X text 630 153 same deal as the highlighted code on the left. But instead of using [phasor~] to cycle through phase \, we're doing it manually with this number box.;
#X obj 363 377 osci/record~;
#X connect 0 0 21 0;
#X connect 1 0 9 1;
#X connect 3 0 4 0;
#X connect 4 0 9 0;
#X connect 5 0 6 0;
#X connect 6 0 1 0;
#X connect 7 0 3 0;
#X connect 7 0 5 0;
#X connect 7 0 19 0;
#X connect 7 1 16 0;
#X connect 7 1 15 3;
#X connect 9 0 2 0;
#X connect 9 0 23 0;
#X connect 9 1 2 1;
#X connect 9 1 23 0;
#X connect 10 0 15 1;
#X connect 11 0 12 0;
#X connect 12 0 15 0;
#X connect 13 0 14 0;
#X connect 14 0 10 0;
#X connect 15 0 2 0;
#X connect 15 0 23 1;
#X connect 15 1 2 1;
#X connect 15 1 23 1;
#X connect 16 0 15 0;
#X connect 16 1 15 1;
#X connect 17 0 11 0;
#X connect 18 0 7 0;
#X connect 19 0 9 3;
#X connect 21 0 17 0;
#X connect 21 0 13 0;
