#N canvas 79 120 519 409 12;
#X obj 31 308 clip~ -1 1;
#X obj 269 308 clip~ -1 1;
#X obj 165 367 dac~;
#X floatatom 93 221 8 0 0 0 - - - 0;
#X obj 59 262 * -1;
#X obj 115 38 phasor~ 50;
#X obj 269 100 +~ 0.25;
#X obj 269 126 wrap~;
#X obj 269 160 expr~ min(-$v1 + 1 \, $v1) * 4 - 1;
#X obj 31 162 expr~ min(-$v1 + 1 \, $v1) * 4 - 1;
#X connect 0 0 2 0;
#X connect 1 0 2 1;
#X connect 3 0 4 0;
#X connect 3 0 1 2;
#X connect 3 0 0 2;
#X connect 4 0 0 1;
#X connect 4 0 1 1;
#X connect 5 0 6 0;
#X connect 5 0 9 0;
#X connect 6 0 7 0;
#X connect 7 0 8 0;
#X connect 8 0 1 0;
#X connect 9 0 0 0;
