#N canvas 245 131 536 332 12;
#X floatatom 161 29 5 0 0 0 frequency - - 12;
#X obj 161 56 phasor~;
#X obj 168 284 dac~;
#X obj 29 179 expr~ (1-$v1) * $f2 + $v1 * $f3;
#X obj 289 179 expr~ (1-$v1) * $f2 + $v1 * $f3;
#X floatatom 127 147 5 0 0 1 x1 - - 12;
#X floatatom 189 148 5 0 0 1 x2 - - 12;
#X floatatom 388 147 5 0 0 1 y1 - - 12;
#X floatatom 466 149 5 0 0 1 y2 - - 12;
#X obj 29 224 clip~ -1 1;
#X obj 289 224 clip~ -1 1;
#X connect 0 0 1 0;
#X connect 1 0 3 0;
#X connect 1 0 4 0;
#X connect 3 0 9 0;
#X connect 4 0 10 0;
#X connect 5 0 3 1;
#X connect 6 0 3 2;
#X connect 7 0 4 1;
#X connect 8 0 4 2;
#X connect 9 0 2 0;
#X connect 10 0 2 1;
