#N canvas 245 131 748 398 12;
#X obj 92 76 *~ 4;
#X obj 83 153 tabread~ xpts;
#X obj 192 153 tabread~ ypts;
#X obj 490 23 array define xpts 4;
#X obj 490 53 array define ypts 4;
#X obj 493 143 array set xpts;
#X obj 493 85 loadbang;
#X obj 613 143 array set ypts;
#X msg 493 117 -1 1 1 -1;
#X msg 613 117 1 1 -1 -1;
#X obj 22 326 clip~ -1 1;
#X obj 161 326 clip~ -1 1;
#X obj 22 372 dac~;
#X floatatom 92 10 8 0 0 1 frequency - - 12;
#N canvas 92 117 321 196 lerp~ 0;
#X obj 114 47 inlet~ v0;
#X obj 216 47 inlet~ v1;
#X obj 12 47 inlet~ t;
#X obj 12 96 expr~ (1-$v1) * $v2 + $v1 * $v3;
#X obj 12 132 outlet~;
#X connect 0 0 3 1;
#X connect 1 0 3 2;
#X connect 2 0 3 0;
#X connect 3 0 4 0;
#X restore 22 281 pd lerp~;
#X obj 308 155 +~ 1;
#X obj 24 187 wrap~;
#N canvas 92 117 321 196 lerp~ 0;
#X obj 114 47 inlet~ v0;
#X obj 216 47 inlet~ v1;
#X obj 12 47 inlet~ t;
#X obj 12 96 expr~ (1-$v1) * $v2 + $v1 * $v3;
#X obj 12 132 outlet~;
#X connect 0 0 3 1;
#X connect 1 0 3 2;
#X connect 2 0 3 0;
#X connect 3 0 4 0;
#X restore 161 283 pd lerp~;
#X obj 308 226 tabread~ xpts;
#X obj 418 226 tabread~ ypts;
#X obj 308 185 expr~ fmod($v1 \, 4);
#X obj 92 40 phasor~ 50;
#X connect 0 0 1 0;
#X connect 0 0 2 0;
#X connect 0 0 16 0;
#X connect 0 0 15 0;
#X connect 1 0 14 1;
#X connect 2 0 17 1;
#X connect 6 0 8 0;
#X connect 6 0 9 0;
#X connect 8 0 5 0;
#X connect 9 0 7 0;
#X connect 10 0 12 0;
#X connect 11 0 12 1;
#X connect 13 0 21 0;
#X connect 14 0 10 0;
#X connect 15 0 20 0;
#X connect 16 0 14 0;
#X connect 16 0 17 0;
#X connect 17 0 11 0;
#X connect 18 0 14 2;
#X connect 19 0 17 2;
#X connect 20 0 18 0;
#X connect 20 0 19 0;
#X connect 21 0 0 0;
