#N canvas 608 117 579 449 12;
#X obj 132 70 phasor~;
#X obj 132 106 *~ 4;
#X obj 148 238 tabread~ xpts;
#X obj 247 238 tabread~ ypts;
#X obj 335 23 array define xpts 4;
#X obj 335 53 array define ypts 4;
#X obj 338 143 array set xpts;
#X obj 338 85 loadbang;
#X obj 458 143 array set ypts;
#X msg 338 117 -1 1 1 -1;
#X msg 458 117 1 1 -1 -1;
#X obj 89 368 clip~ -1 1;
#X obj 228 368 clip~ -1 1;
#X obj 89 404 dac~;
#X floatatom 132 40 8 0 0 1 frequency - - 0;
#X obj 268 174 +~ 1;
#X obj 89 198 wrap~;
#X obj 158 274 tabread~ xpts;
#X obj 268 274 tabread~ ypts;
#X obj 268 204 expr~ fmod($v1 \, 4);
#X floatatom 28 188 8 -1 1 0 - - - 0;
#X msg 28 213 \$1 15;
#X obj 28 239 vline~;
#X obj 89 274 *~, f 4;
#N canvas 92 117 321 196 lerp~ 0;
#X obj 114 47 inlet~ v0;
#X obj 216 47 inlet~ v1;
#X obj 12 47 inlet~ t;
#X obj 12 132 outlet~;
#X obj 12 96 expr~ $v2 + $v1 * ($v3-$v2);
#X connect 0 0 4 1;
#X connect 1 0 4 2;
#X connect 2 0 4 0;
#X connect 4 0 3 0;
#X restore 228 335 pd lerp~;
#N canvas 92 117 321 196 lerp~ 0;
#X obj 114 47 inlet~ v0;
#X obj 216 47 inlet~ v1;
#X obj 12 47 inlet~ t;
#X obj 12 132 outlet~;
#X obj 12 96 expr~ $v2 + $v1 * ($v3-$v2);
#X connect 0 0 4 1;
#X connect 1 0 4 2;
#X connect 2 0 4 0;
#X connect 4 0 3 0;
#X restore 89 333 pd lerp~;
#X connect 0 0 1 0;
#X connect 1 0 2 0;
#X connect 1 0 3 0;
#X connect 1 0 15 0;
#X connect 1 0 16 0;
#X connect 2 0 25 1;
#X connect 3 0 24 1;
#X connect 7 0 9 0;
#X connect 7 0 10 0;
#X connect 9 0 6 0;
#X connect 10 0 8 0;
#X connect 11 0 13 0;
#X connect 12 0 13 1;
#X connect 14 0 0 0;
#X connect 15 0 19 0;
#X connect 16 0 23 0;
#X connect 17 0 25 2;
#X connect 18 0 24 2;
#X connect 19 0 17 0;
#X connect 19 0 18 0;
#X connect 20 0 21 0;
#X connect 21 0 22 0;
#X connect 22 0 23 1;
#X connect 23 0 25 0;
#X connect 23 0 24 0;
#X connect 24 0 12 0;
#X connect 25 0 11 0;
