#N canvas 62 157 1012 473 12;
#X obj 183 76 *~ 4;
#X obj 183 153 tabread~ xpts;
#X obj 282 153 tabread~ ypts;
#X obj 735 21 array define xpts 4;
#X obj 735 51 array define ypts 4;
#X obj 738 171 array set xpts;
#X obj 738 113 loadbang;
#X obj 858 171 array set ypts;
#X msg 738 145 -1 1 1 -1;
#X msg 858 145 1 1 -1 -1;
#X obj 162 366 clip~ -1 1;
#X obj 241 366 clip~ -1 1;
#X obj 192 412 dac~;
#X floatatom 183 10 8 0 0 1 frequency - - 0;
#N canvas 92 117 321 196 lerp~ 0;
#X obj 114 47 inlet~ v0;
#X obj 216 47 inlet~ v1;
#X obj 12 47 inlet~ t;
#X obj 12 96 expr~ (1-$v1) * $v2 + $v1 * $v3;
#X obj 12 132 outlet~;
#X connect 0 0 3 1;
#X connect 1 0 3 2;
#X connect 2 0 3 0;
#X connect 3 0 4 0;
#X restore 162 321 pd lerp~;
#X obj 386 153 +~ 1;
#X obj 12 183 wrap~;
#N canvas 92 117 321 196 lerp~ 0;
#X obj 114 47 inlet~ v0;
#X obj 216 47 inlet~ v1;
#X obj 12 47 inlet~ t;
#X obj 12 96 expr~ (1-$v1) * $v2 + $v1 * $v3;
#X obj 12 132 outlet~;
#X connect 0 0 3 1;
#X connect 1 0 3 2;
#X connect 2 0 3 0;
#X connect 3 0 4 0;
#X restore 241 323 pd lerp~;
#X obj 386 224 tabread~ xpts;
#X obj 496 224 tabread~ ypts;
#X obj 386 183 expr~ fmod($v1 \, 4);
#X obj 183 40 phasor~ 50;
#X obj 738 232 array set interp;
#X obj 735 81 array define interp 4;
#X obj 47 217 tabread~ interp;
#X obj 12 249 *~, f 4;
#X msg 738 205 1 1 1 0;
#X text 320 39 The only thing we need to add to control turning the interpolation on and off \, is another array filled with either 0's for off and 1's for on. We then scale the output of wrap~ with the values in the interp array.;
#X connect 0 0 1 0;
#X connect 0 0 2 0;
#X connect 0 0 15 0;
#X connect 0 0 16 0;
#X connect 0 0 24 0;
#X connect 1 0 14 1;
#X connect 2 0 17 1;
#X connect 6 0 8 0;
#X connect 6 0 9 0;
#X connect 6 0 26 0;
#X connect 8 0 5 0;
#X connect 9 0 7 0;
#X connect 10 0 12 0;
#X connect 11 0 12 1;
#X connect 13 0 21 0;
#X connect 14 0 10 0;
#X connect 15 0 20 0;
#X connect 16 0 25 0;
#X connect 17 0 11 0;
#X connect 18 0 14 2;
#X connect 19 0 17 2;
#X connect 20 0 18 0;
#X connect 20 0 19 0;
#X connect 21 0 0 0;
#X connect 24 0 25 1;
#X connect 25 0 14 0;
#X connect 25 0 17 0;
#X connect 26 0 22 0;
