#N canvas 441 173 490 441 12;
#X floatatom 76 22 5 0 0 1 frequency - - 0;
#X obj 76 47 phasor~ 60;
#N canvas 145 199 778 398 rotate_2D~ 0;
#X obj 289 34 inlet~ angle;
#X obj 289 60 expr~ ($v1 * 3.14159) / 180;
#X obj 26 34 inlet~ x;
#X obj 157 34 inlet~ y;
#X obj 26 120 expr~ $v1 * cos($v3) - $v2 * sin($v3) \; $v1 * sin($v3) + $v2 * cos($v3);
#X obj 137 202 outlet~ new_y;
#X obj 26 202 outlet~ new_x;
#X text 489 59 degrees to radians;
#X text 486 141 |- -|;
#X text 486 185 |- -|;
#X text 486 152 | x |;
#X text 486 174 | y |;
#X text 536 164 ===>;
#X text 364 96 Linear Algebra that nets us these two expressions for rotation.;
#X text 576 152 newx = x*cos(ø) - y*sin(ø);
#X text 576 172 newy = x*sin(ø) + y*cos(ø);
#X text 346 141 |-;
#X text 346 185 |-;
#X text 346 164 |;
#X text 346 174 | sin(ø) cos(ø);
#X text 346 152 | cos(ø) -sin(ø);
#X text 486 164 |;
#X text 463 141 -|;
#X text 463 185 -|;
#X text 470 153 |;
#X text 470 165 |;
#X text 514 163 |;
#X text 470 175 |;
#X connect 0 0 1 0;
#X connect 1 0 4 2;
#X connect 2 0 4 0;
#X connect 3 0 4 1;
#X connect 4 0 6 0;
#X connect 4 1 5 0;
#X restore 76 199 pd rotate_2D~;
#X obj 76 73 *~ 2;
#X obj 76 99 +~ -1;
#X obj 76 265 clip~ -1 1;
#X obj 164 265 clip~ -1 1;
#X obj 106 321 dac~;
#X floatatom 164 170 5 0 360 1 angle - - 0;
#X floatatom 120 137 5 -1 1 1 y_position - - 0;
#X text 124 84 rerange from 0->1 to -1->1;
#X connect 0 0 1 0;
#X connect 1 0 3 0;
#X connect 2 0 5 0;
#X connect 2 1 6 0;
#X connect 3 0 4 0;
#X connect 4 0 2 0;
#X connect 5 0 7 0;
#X connect 6 0 7 1;
#X connect 8 0 2 2;
#X connect 9 0 2 1;
