#N canvas 245 131 767 612 12;
#X obj 472 406 clip~ -1 1;
#X obj 582 406 clip~ -1 1;
#X obj 519 462 dac~;
#X obj 26 293 *~ 14;
#X obj 26 319 -~ 7;
#X floatatom 519 337 8 0 0 0 - - - 0;
#X obj 26 460 throw~ x;
#X obj 472 306 catch~ x;
#X obj 582 306 catch~ y;
#X obj 582 367 *~ 0.14;
#X obj 472 367 *~ 0.14;
#N canvas 592 199 450 300 outer_ears 0;
#X obj 53 97 expr~ (1-abs($v1))*(abs($v1)-0.75);
#X obj 53 128 expr~ sqrt(abs($v1)/$v1);
#X text 231 129 s(x);
#X obj 53 220 -~, f 5;
#X obj 53 44 inlet~;
#X obj 53 256 throw~ y;
#X obj 53 154 *~ 9;
#X obj 116 188 expr~ 8*abs($v1) - 0.8;
#X connect 0 0 1 0;
#X connect 1 0 6 0;
#X connect 3 0 5 0;
#X connect 4 0 0 0;
#X connect 4 0 7 0;
#X connect 6 0 3 0;
#X connect 7 0 3 1;
#X restore 279 376 pd outer_ears;
#N canvas 68 259 450 339 inner_ears 0;
#X obj 53 128 expr~ sqrt(abs($v1)/$v1);
#X obj 53 44 inlet~;
#X obj 53 256 throw~ y;
#X obj 53 97 expr~ (0.75-abs($v1))*(abs($v1)-0.5);
#X obj 53 154 *~ 0.75;
#X obj 53 220 +~, f 5;
#X obj 116 188 expr~ 3*abs($v1) + 0.7;
#X connect 0 0 4 0;
#X connect 1 0 3 0;
#X connect 1 0 6 0;
#X connect 3 0 0 0;
#X connect 4 0 5 0;
#X connect 5 0 2 0;
#X connect 6 0 5 1;
#X restore 267 403 pd inner_ears;
#N canvas 621 332 450 300 top_head 0;
#X obj 97 46 inlet~;
#X obj 97 100 expr~ sqrt(abs($v1)/$v1);
#X obj 97 71 expr~ (.5-$v1)*($v1+.5);
#X obj 97 126 *~ 2.25;
#X obj 97 182 throw~ y;
#X obj 97 152 +~ 0.7;
#X connect 0 0 2 0;
#X connect 1 0 3 0;
#X connect 2 0 1 0;
#X connect 3 0 5 0;
#X connect 5 0 4 0;
#X restore 293 349 pd top_head;
#N canvas 554 277 294 257 bottom_wing 0;
#X obj 19 21 inlet~;
#X obj 19 87 expr~ -3*sqrt(1 - pow(($v1/7.0) \, 2));
#X obj 19 183 *~, f 4;
#X obj 34 155 expr~ sqrt(abs($v1)/$v1);
#X obj 19 209 throw~ y;
#X obj 34 122 expr~ abs($v1) - 4;
#X connect 0 0 1 0;
#X connect 0 0 5 0;
#X connect 1 0 2 0;
#X connect 2 0 4 0;
#X connect 3 0 2 1;
#X connect 5 0 3 0;
#X restore 36 392 pd bottom_wing;
#N canvas 663 198 450 426 tail 0;
#X obj 58 144 expr~ abs($v1/2);
#X obj 87 183 expr~ ((3*sqrt(33)-7)/112)*$v1*$v1;
#X obj 58 223 -~, f 4;
#X obj 58 365 throw~ y;
#X obj 58 70 inlet~;
#X obj 93 287 expr~ sqrt(1-pow((abs(abs($v1)-2)-1) \, 2));
#X obj 58 259 -~ 3;
#X obj 58 325 +~, f 4;
#X connect 0 0 2 0;
#X connect 1 0 2 1;
#X connect 2 0 6 0;
#X connect 4 0 0 0;
#X connect 4 0 1 0;
#X connect 4 0 5 0;
#X connect 5 0 7 1;
#X connect 6 0 7 0;
#X connect 7 0 3 0;
#X restore 55 361 pd tail;
#N canvas 442 150 450 480 inner_top_wing 0;
#X obj 59 52 inlet~;
#X obj 59 134 expr~ sqrt(abs($v1)/$v1);
#X obj 59 101 expr~ abs($v1) - 1;
#X obj 59 200 *~, f 4;
#X obj 78 166 expr~ 1.5 - .5*abs($v1);
#X obj 59 226 expr~ $v1 + ((6 * sqrt(10)) / 7.0);
#X obj 81 267 expr~ sqrt( 4 - pow(abs($v1)-1 \, 2) );
#X obj 81 293 expr~ $v1 * ((6 * sqrt(10)) / 14.0);
#X obj 59 320 -~, f 4;
#X obj 59 426 throw~ y;
#X obj 59 376 +~ 0.7;
#X connect 0 0 4 0;
#X connect 0 0 2 0;
#X connect 0 0 6 0;
#X connect 1 0 3 0;
#X connect 2 0 1 0;
#X connect 3 0 5 0;
#X connect 4 0 3 1;
#X connect 5 0 8 0;
#X connect 6 0 7 0;
#X connect 7 0 8 1;
#X connect 8 0 10 0;
#X connect 10 0 9 0;
#X restore 254 432 pd inner_top_wing;
#N canvas 636 211 548 251 outer_top_wing 0;
#X obj 19 21 inlet~;
#X obj 19 169 throw~ y;
#X obj 19 57 expr~ 2*sqrt(-abs(abs($v1)-1)*abs(3-abs($v1))/((abs($v1)-1)*(3-abs($v1))))*(1+abs(abs($v1)-3)/(abs($v1)-3)) * sqrt(1-pow($v1/7 \, 2)), f 71;
#X obj 19 115 -~ 0.2;
#X connect 0 0 2 0;
#X connect 2 0 3 0;
#X connect 3 0 1 0;
#X restore 240 459 pd outer_top_wing;
#X obj 26 258 *~ 2;
#X obj 26 226 *~, f 4;
#X obj 241 292 *~ 14;
#X obj 241 318 -~ 7;
#X obj 177 417 throw~ x;
#X obj 241 225 *~, f 4;
#X obj 177 381 *~, f 4;
#X obj 26 427 *~, f 4;
#X obj 65 142 expr~ $v1 < 0.5 \; $v1 > 0.5;
#X obj 241 257 expr~ -2*($v1-0.5) + 1;
#X text 285 37 It's cool that this works \, but seriously \, there's much better ways to achieve this! If you're curious how this equation was constructed \, check out this math stack exchange thread. https://math.stackexchange.com/questions/54506/is-this-batman-equation-for-real/54568#54568;
#X obj 75 29 phasor~ 60;
#X connect 0 0 2 0;
#X connect 1 0 2 1;
#X connect 3 0 4 0;
#X connect 4 0 14 0;
#X connect 4 0 15 0;
#X connect 4 0 25 0;
#X connect 5 0 9 1;
#X connect 5 0 10 1;
#X connect 7 0 10 0;
#X connect 8 0 9 0;
#X connect 9 0 1 0;
#X connect 10 0 0 0;
#X connect 18 0 3 0;
#X connect 19 0 18 0;
#X connect 20 0 21 0;
#X connect 21 0 13 0;
#X connect 21 0 11 0;
#X connect 21 0 12 0;
#X connect 21 0 16 0;
#X connect 21 0 17 0;
#X connect 21 0 24 0;
#X connect 23 0 27 0;
#X connect 24 0 22 0;
#X connect 25 0 6 0;
#X connect 26 0 19 1;
#X connect 26 0 25 1;
#X connect 26 1 23 1;
#X connect 26 1 24 1;
#X connect 27 0 20 0;
#X connect 29 0 19 0;
#X connect 29 0 23 0;
#X connect 29 0 26 0;
