#N canvas 245 131 883 408 12;
#X obj 73 153 tabread~ xpts;
#X obj 172 153 tabread~ ypts;
#X obj 612 231 array set xpts;
#X obj 732 231 array set ypts;
#X obj 12 326 clip~ -1 1;
#X obj 151 326 clip~ -1 1;
#X obj 12 372 dac~;
#X floatatom 12 10 8 0 0 1 frequency - - 0;
#N canvas 92 117 321 196 lerp~ 0;
#X obj 114 47 inlet~ v0;
#X obj 216 47 inlet~ v1;
#X obj 12 47 inlet~ t;
#X obj 12 96 expr~ (1-$v1) * $v2 + $v1 * $v3;
#X obj 12 132 outlet~;
#X connect 0 0 3 1;
#X connect 1 0 3 2;
#X connect 2 0 3 0;
#X connect 3 0 4 0;
#X restore 12 281 pd lerp~;
#X obj 276 153 +~ 1;
#X obj 12 153 wrap~;
#N canvas 92 117 321 196 lerp~ 0;
#X obj 114 47 inlet~ v0;
#X obj 216 47 inlet~ v1;
#X obj 12 47 inlet~ t;
#X obj 12 96 expr~ (1-$v1) * $v2 + $v1 * $v3;
#X obj 12 132 outlet~;
#X connect 0 0 3 1;
#X connect 1 0 3 2;
#X connect 2 0 3 0;
#X connect 3 0 4 0;
#X restore 151 283 pd lerp~;
#X obj 276 224 tabread~ xpts;
#X obj 386 224 tabread~ ypts;
#X obj 12 40 phasor~ 50;
#X obj 582 101 bng 24 250 50 0 empty empty manual -45 12 0 12 #ffffff #000000 #000000;
#X obj 612 101 tgl 24 0 empty empty automatic 30 11 0 12 #ffffff #000000 #000000 0 1;
#N canvas 353 378 478 208 random_point 0;
#N canvas 266 291 286 166 random 0;
#X obj 21 45 random 201;
#X obj 21 71 - 100;
#X obj 21 97 / 100;
#X text 84 75 random number from -1 to 1;
#X obj 21 15 inlet;
#X obj 21 123 outlet;
#X connect 0 0 1 0;
#X connect 1 0 2 0;
#X connect 2 0 5 0;
#X connect 4 0 0 0;
#X restore 17 116 pd random;
#N canvas 266 291 286 166 random 0;
#X obj 21 45 random 201;
#X obj 21 71 - 100;
#X obj 21 97 / 100;
#X text 84 75 random number from -1 to 1;
#X obj 21 15 inlet;
#X obj 21 123 outlet;
#X connect 0 0 1 0;
#X connect 1 0 2 0;
#X connect 2 0 5 0;
#X connect 4 0 0 0;
#X restore 97 116 pd random;
#X obj 17 51 t b b;
#N canvas 324 349 150 169 index 0;
#X obj 16 71 f, f 5;
#X obj 71 61 + 1, f 4;
#X obj 71 91 % 10;
#X obj 16 24 inlet;
#X obj 16 123 outlet;
#X connect 0 0 1 0;
#X connect 0 0 4 0;
#X connect 1 0 2 0;
#X connect 2 0 0 1;
#X connect 3 0 0 0;
#X restore 194 117 pd index;
#X obj 17 13 inlet bang;
#X obj 17 162 outlet;
#X obj 97 162 outlet;
#X obj 194 163 outlet;
#X text 61 52 make sure we update the index before we create a new point;
#X connect 0 0 5 0;
#X connect 1 0 6 0;
#X connect 2 0 1 0;
#X connect 2 0 0 0;
#X connect 2 1 3 0;
#X connect 3 0 7 0;
#X connect 4 0 2 0;
#X restore 612 179 pd random_point;
#X obj 276 183 expr~ fmod($v1 \, 10);
#X obj 12 76 *~ 10;
#X obj 612 136 metro 120;
#X obj 540 23 array define -k xpts 10;
#A 0 -0.75 0.8 0.63 -0.46 -0.72 0.77 0.27 0.23 0.79 -0.55;
#X obj 540 53 array define -k ypts 10;
#A 0 -0.19 -0.47 0.3 -0.69 0.95 0.4 -0.93 -0.36 0.32 0.56;
#X text 108 49 The -k flag for [array define] tells pd to keep the values in the array when we close the patch.;
#X connect 0 0 8 1;
#X connect 1 0 11 1;
#X connect 4 0 6 0;
#X connect 5 0 6 1;
#X connect 7 0 14 0;
#X connect 8 0 4 0;
#X connect 9 0 18 0;
#X connect 10 0 8 0;
#X connect 10 0 11 0;
#X connect 11 0 5 0;
#X connect 12 0 8 2;
#X connect 13 0 11 2;
#X connect 14 0 19 0;
#X connect 15 0 17 0;
#X connect 16 0 20 0;
#X connect 17 0 2 0;
#X connect 17 1 3 0;
#X connect 17 2 2 1;
#X connect 17 2 3 1;
#X connect 18 0 12 0;
#X connect 18 0 13 0;
#X connect 19 0 0 0;
#X connect 19 0 1 0;
#X connect 19 0 9 0;
#X connect 19 0 10 0;
#X connect 20 0 17 0;
