#N canvas 394 122 626 328 12;
#X floatatom 20 12 5 0 0 1 draw_frequency - - 0;
#X obj 353 229 array define xpts 8;
#X obj 353 259 array define ypts 8;
#X obj 363 79 array set xpts;
#X obj 363 139 array set ypts;
#N canvas 63 88 788 447 tabreadlin~ 0;
#X obj 50 5 inlet~;
#X obj 53 306 outlet~;
#X obj 192 306 outlet~;
#X obj 79 135 tabread~ xpts;
#X obj 218 135 tabread~ ypts;
#N canvas 92 117 321 196 lerp~ 0;
#X obj 114 47 inlet~ v0;
#X obj 216 47 inlet~ v1;
#X obj 12 47 inlet~ t;
#X obj 12 96 expr~ (1-$v1) * $v2 + $v1 * $v3;
#X obj 12 132 outlet~;
#X connect 0 0 3 1;
#X connect 1 0 3 2;
#X connect 2 0 3 0;
#X connect 3 0 4 0;
#X restore 53 263 pd lerp~;
#X obj 441 97 +~ 1;
#X obj 53 169 wrap~;
#N canvas 92 117 321 196 lerp~ 0;
#X obj 114 47 inlet~ v0;
#X obj 216 47 inlet~ v1;
#X obj 12 47 inlet~ t;
#X obj 12 96 expr~ (1-$v1) * $v2 + $v1 * $v3;
#X obj 12 132 outlet~;
#X connect 0 0 3 1;
#X connect 1 0 3 2;
#X connect 2 0 3 0;
#X connect 3 0 4 0;
#X restore 192 265 pd lerp~;
#X obj 441 170 tabread~ xpts;
#X obj 551 170 tabread~ ypts;
#X obj 441 134 expr~ fmod($v1 \, 8);
#X text 210 26 See the videos and patches on arrays and linear interpolation for an in depth explanation of how this works.;
#X connect 0 0 7 0;
#X connect 0 0 3 0;
#X connect 0 0 4 0;
#X connect 0 0 6 0;
#X connect 3 0 5 1;
#X connect 4 0 8 1;
#X connect 5 0 1 0;
#X connect 6 0 11 0;
#X connect 7 0 5 0;
#X connect 7 0 8 0;
#X connect 8 0 2 0;
#X connect 9 0 5 2;
#X connect 10 0 8 2;
#X connect 11 0 9 0;
#X connect 11 0 10 0;
#X restore 20 142 pd tabreadlin~;
#X msg 363 49 -0.8 -0.6 -0.4 -0.8 0.8 0.6 0.4 0.8;
#X msg 363 109 0 0.5 0 0 0 0.5 0 0;
#X obj 20 63 *~ 8;
#X obj 353 289 array define blanking 8;
#X obj 353 199 array set blanking;
#X obj 20 244 clip~ -1 1;
#X obj 98 244 clip~ -1 1;
#X obj 20 290 dac~ 1 2 3;
#X obj 175 244 clip~ -1 1;
#X obj 175 142 tabread~ blanking;
#X obj 175 178 *~;
#X obj 206 178 tgl 21 0 empty empty blanking_on_off 25 12 0 12 #fcfcfc #000000 #000000 0 1;
#X obj 20 37 phasor~ 60;
#X msg 353 169 0 0 0 1 0 0 0 1;
#X obj 353 6 loadbang;
#X text 421 5 Setup the arrays;
#X text 102 292 1+2: x&y | 3: blanking;
#X connect 0 0 18 0;
#X connect 5 0 11 0;
#X connect 5 1 12 0;
#X connect 6 0 3 0;
#X connect 7 0 4 0;
#X connect 8 0 5 0;
#X connect 8 0 15 0;
#X connect 11 0 13 0;
#X connect 12 0 13 1;
#X connect 14 0 13 2;
#X connect 15 0 16 0;
#X connect 16 0 14 0;
#X connect 17 0 16 1;
#X connect 18 0 8 0;
#X connect 19 0 10 0;
#X connect 20 0 6 0;
#X connect 20 0 7 0;
#X connect 20 0 19 0;
