#N canvas 449 63 436 579 12;
#X obj 151 502 dac~;
#X obj 124 458 clip~ -1 1;
#X obj 204 458 clip~ -1 1;
#N canvas 63 88 450 300 circle~ 0;
#X obj 98 28 inlet~;
#X obj 103 187 outlet~;
#X obj 223 187 outlet~;
#X obj 100 142 cos~;
#X obj 151 95 +~ 0.25;
#X obj 151 141 cos~;
#X connect 0 0 3 0;
#X connect 0 0 4 0;
#X connect 3 0 1 0;
#X connect 4 0 5 0;
#X connect 5 0 2 0;
#X restore 136 128 pd circle~;
#N canvas 534 150 596 360 sqr_wave~ 0;
#X obj 24 98 expr~ $v1 > 0.5;
#X obj 24 314 outlet~;
#X text 148 66 Vanilla pd doesn't have a built in square wave. But this expression is all we need to get the job done. A square wave oscillates between two values \, so we can just use an expression like this one \, which just returns true or false -- 0 or 1 --. Voilà \, a square wave!;
#X obj 24 200 *~ 2;
#X obj 24 226 -~ 1;
#X text 147 182 The square wave is currenly just oscillating between 0 and 1 \, so we multiply by 2 and subtract 1 to make it oscillate from -1 to 1 instead., f 46;
#X obj 24 73 phasor~ 60;
#X obj 24 42 inlet;
#X connect 0 0 3 0;
#X connect 3 0 4 0;
#X connect 4 0 1 0;
#X connect 6 0 0 0;
#X connect 7 0 6 0;
#X restore 241 223 pd sqr_wave~;
#X obj 241 261 *~;
#X floatatom 270 261 5 0 0 1 vol - - 0;
#X obj 223 292 +~;
#X obj 103 292 +~;
#X floatatom 241 201 5 0 0 1 freq - - 0;
#X obj 136 85 phasor~ 120;
#X floatatom 136 60 5 0 0 1 main_frequency - - 0;
#X obj 103 172 *~ 0.25;
#X obj 223 172 *~ 0.25;
#N canvas 534 150 596 360 sqr_wave~ 0;
#X obj 24 98 expr~ $v1 > 0.5;
#X obj 24 314 outlet~;
#X text 148 66 Vanilla pd doesn't have a built in square wave. But this expression is all we need to get the job done. A square wave oscillates between two values \, so we can just use an expression like this one \, which just returns true or false -- 0 or 1 --. Voilà \, a square wave!;
#X obj 24 200 *~ 2;
#X obj 24 226 -~ 1;
#X text 147 182 The square wave is currenly just oscillating between 0 and 1 \, so we multiply by 2 and subtract 1 to make it oscillate from -1 to 1 instead., f 46;
#X obj 24 73 phasor~ 60;
#X obj 24 42 inlet;
#X connect 0 0 3 0;
#X connect 3 0 4 0;
#X connect 4 0 1 0;
#X connect 6 0 0 0;
#X connect 7 0 6 0;
#X restore 121 226 pd sqr_wave~;
#X obj 121 264 *~;
#X floatatom 150 264 5 0 0 1 vol - - 0;
#X floatatom 121 204 5 0 0 1 freq - - 0;
#N canvas 534 150 596 360 sqr_wave~ 0;
#X obj 24 98 expr~ $v1 > 0.5;
#X obj 24 314 outlet~;
#X text 148 66 Vanilla pd doesn't have a built in square wave. But this expression is all we need to get the job done. A square wave oscillates between two values \, so we can just use an expression like this one \, which just returns true or false -- 0 or 1 --. Voilà \, a square wave!;
#X obj 24 200 *~ 2;
#X obj 24 226 -~ 1;
#X text 147 182 The square wave is currenly just oscillating between 0 and 1 \, so we multiply by 2 and subtract 1 to make it oscillate from -1 to 1 instead., f 46;
#X obj 24 73 phasor~ 60;
#X obj 24 42 inlet;
#X connect 0 0 3 0;
#X connect 3 0 4 0;
#X connect 4 0 1 0;
#X connect 6 0 0 0;
#X connect 7 0 6 0;
#X restore 241 347 pd sqr_wave~;
#X obj 241 385 *~;
#X floatatom 270 385 5 0 0 1 vol - - 0;
#X obj 223 414 +~;
#X floatatom 241 325 5 0 0 1 freq - - 0;
#X floatatom 228 134 5 0 0 1 circle_size - - 0;
#X obj 103 414 +~;
#N canvas 534 150 596 360 sqr_wave~ 0;
#X obj 24 98 expr~ $v1 > 0.5;
#X obj 24 314 outlet~;
#X text 148 66 Vanilla pd doesn't have a built in square wave. But this expression is all we need to get the job done. A square wave oscillates between two values \, so we can just use an expression like this one \, which just returns true or false -- 0 or 1 --. Voilà \, a square wave!;
#X obj 24 200 *~ 2;
#X obj 24 226 -~ 1;
#X text 147 182 The square wave is currenly just oscillating between 0 and 1 \, so we multiply by 2 and subtract 1 to make it oscillate from -1 to 1 instead., f 46;
#X obj 24 73 phasor~ 60;
#X obj 24 42 inlet;
#X connect 0 0 3 0;
#X connect 3 0 4 0;
#X connect 4 0 1 0;
#X connect 6 0 0 0;
#X connect 7 0 6 0;
#X restore 121 349 pd sqr_wave~;
#X obj 121 387 *~;
#X floatatom 150 387 5 0 0 1 vol - - 0;
#X floatatom 121 327 5 0 0 1 freq - - 0;
#X connect 1 0 0 0;
#X connect 2 0 0 1;
#X connect 3 0 12 0;
#X connect 3 1 13 0;
#X connect 4 0 5 0;
#X connect 5 0 7 1;
#X connect 6 0 5 1;
#X connect 7 0 21 0;
#X connect 8 0 24 0;
#X connect 9 0 4 0;
#X connect 10 0 3 0;
#X connect 11 0 10 0;
#X connect 12 0 8 0;
#X connect 13 0 7 0;
#X connect 14 0 15 0;
#X connect 15 0 8 1;
#X connect 16 0 15 1;
#X connect 17 0 14 0;
#X connect 18 0 19 0;
#X connect 19 0 21 1;
#X connect 20 0 19 1;
#X connect 21 0 2 0;
#X connect 22 0 18 0;
#X connect 23 0 12 1;
#X connect 23 0 13 1;
#X connect 24 0 1 0;
#X connect 25 0 26 0;
#X connect 26 0 24 1;
#X connect 27 0 26 1;
#X connect 28 0 25 0;
