#N canvas 346 132 475 384 12;
#X obj 110 342 dac~;
#X obj 43 298 clip~ -1 1;
#X obj 163 298 clip~ -1 1;
#N canvas 63 88 450 300 circle~ 0;
#X obj 98 28 inlet~;
#X obj 103 187 outlet~;
#X obj 223 187 outlet~;
#X obj 100 142 cos~;
#X obj 151 95 +~ 0.25;
#X obj 151 141 cos~;
#X connect 0 0 3 0;
#X connect 0 0 4 0;
#X connect 3 0 1 0;
#X connect 4 0 5 0;
#X connect 5 0 2 0;
#X restore 83 78 pd circle~;
#X obj 163 262 +~;
#X obj 43 262 +~;
#X obj 83 45 phasor~ 120;
#X floatatom 83 20 5 0 0 1 main_frequency - - 0;
#X floatatom 208 67 5 0 0 1 freq - - 0;
#X obj 208 92 phasor~;
#X obj 208 118 *~ 10;
#X obj 61 236 tabread~ xpts;
#X obj 181 237 tabread~ ypts;
#X obj 280 156 bng 21 250 50 0 empty empty empty 0 -11 0 12 #fcfcfc #000000 #000000;
#N canvas 403 236 465 502 gen_offsets_and_sizes 0;
#X msg 75 129 10;
#X obj 75 156 until;
#X obj 15 202 random 201;
#X obj 15 228 / 100;
#X obj 15 254 - 1;
#X obj 15 384 list store;
#X msg 15 281 append \$1;
#X obj 14 45 t b b b;
#X obj 25 410 print xpts set to;
#X obj 155 202 random 201;
#X obj 155 228 / 100;
#X obj 155 254 - 1;
#X obj 155 384 list store;
#X msg 155 281 append \$1;
#X obj 165 410 print ypts set to;
#X obj 15 441 array set xpts;
#X obj 155 440 array set ypts;
#X obj 14 10 inlet bang;
#X obj 240 67 array define ypts 10;
#X obj 240 37 array define xpts 10;
#X obj 240 97 array define sizes 10;
#X obj 306 196 random 11;
#X obj 306 222 / 100;
#X obj 306 384 list store;
#X msg 306 281 append \$1;
#X obj 316 410 print sizes set to;
#X obj 60 70 s clear;
#X obj 222 343 r clear;
#X obj 14 94 s update;
#X obj 192 317 r update;
#X obj 306 440 array set sizes;
#X connect 0 0 1 0;
#X connect 1 0 2 0;
#X connect 1 0 9 0;
#X connect 1 0 21 0;
#X connect 2 0 3 0;
#X connect 3 0 4 0;
#X connect 4 0 6 0;
#X connect 5 0 8 0;
#X connect 5 0 15 0;
#X connect 6 0 5 0;
#X connect 7 0 28 0;
#X connect 7 1 0 0;
#X connect 7 2 26 0;
#X connect 9 0 10 0;
#X connect 10 0 11 0;
#X connect 11 0 13 0;
#X connect 12 0 14 0;
#X connect 12 0 16 0;
#X connect 13 0 12 0;
#X connect 17 0 7 0;
#X connect 21 0 22 0;
#X connect 22 0 24 0;
#X connect 23 0 25 0;
#X connect 23 0 30 0;
#X connect 24 0 23 0;
#X connect 27 0 5 1;
#X connect 27 0 12 1;
#X connect 27 0 23 1;
#X connect 29 0 5 0;
#X connect 29 0 12 0;
#X connect 29 0 23 0;
#X restore 280 181 pd gen_offsets_and_sizes;
#X obj 80 158 tabread~ sizes;
#X obj 43 202 *~;
#X obj 163 202 *~;
#X connect 1 0 0 0;
#X connect 2 0 0 1;
#X connect 3 0 16 0;
#X connect 3 1 17 0;
#X connect 4 0 2 0;
#X connect 5 0 1 0;
#X connect 6 0 3 0;
#X connect 7 0 6 0;
#X connect 8 0 9 0;
#X connect 9 0 10 0;
#X connect 10 0 11 0;
#X connect 10 0 12 0;
#X connect 10 0 15 0;
#X connect 11 0 5 1;
#X connect 12 0 4 1;
#X connect 13 0 14 0;
#X connect 15 0 17 1;
#X connect 15 0 16 1;
#X connect 16 0 5 0;
#X connect 17 0 4 0;
