#N canvas 401 319 562 300 12;
#X floatatom 41 65 8 0 0 2 x\ position - - 0;
#X obj 86 150 dac~;
#X obj 41 100 clip~ -1 1;
#X floatatom 123 65 8 0 0 2 y\ position - - 0;
#X obj 123 100 clip~ -1 1;
#X text 130 140 If your x and y are switched on your oscilloscope there
are two options. Either swap x and y in this patch \, or swap the cables
plugged into the scope.;
#X connect 0 0 2 0;
#X connect 2 0 1 0;
#X connect 3 0 4 0;
#X connect 4 0 1 1;
