#N canvas 341 136 784 527 12;
#X obj 285 448 dac~;
#X obj 221 400 clip~ -1 1;
#X obj 333 400 clip~ -1 1;
#X floatatom 221 52 8 0 0 1 frequency - - 0;
#X obj 221 143 cos~;
#X obj 290 117 +~ 0.25;
#X obj 290 143 cos~;
#X text 348 118 offset by a quarter phase to make it a sine wave;
#X obj 290 359 +~, f 4;
#X obj 221 359 +~, f 4;
#X obj 221 77 phasor~ 100;
#X text 33 143 x = r * cost(t) + xpos;
#X text 329 143 y = r * sin(t) + ypos;
#X floatatom 312 180 8 0 0 0 - - - 0;
#X obj 312 205 phasor~ 51;
#X obj 290 239 *~, f 5;
#X obj 221 239 *~, f 4;
#X text 338 239 changing our radius with a sawtooth waveform;
#X floatatom 305 275 8 0 0 0 - - - 0;
#X obj 305 304 osc~ 15000;
#X obj 305 330 *~ 0.1;
#X text 332 359 changing our y position from -0.1 and 0.1 at 20khz
;
#X connect 1 0 0 0;
#X connect 2 0 0 1;
#X connect 3 0 10 0;
#X connect 4 0 16 0;
#X connect 5 0 6 0;
#X connect 6 0 15 0;
#X connect 8 0 2 0;
#X connect 9 0 1 0;
#X connect 10 0 4 0;
#X connect 10 0 5 0;
#X connect 13 0 14 0;
#X connect 14 0 15 1;
#X connect 14 0 16 1;
#X connect 15 0 8 0;
#X connect 16 0 9 0;
#X connect 18 0 19 0;
#X connect 19 0 20 0;
#X connect 20 0 8 1;
