#N canvas 341 136 784 527 12;
#X obj 124 424 dac~;
#X obj 60 376 clip~ -1 1;
#X obj 172 376 clip~ -1 1;
#X floatatom 60 88 8 0 0 1 frequency - - 0;
#X obj 60 179 cos~;
#X obj 129 153 +~ 0.25;
#X obj 129 179 cos~;
#X obj 60 113 phasor~ 100;
#X obj 228 158 tgl 24 0 empty empty empty 30 11 0 12 #5a524c #a9b665
#c5b18d 0 1;
#X obj 60 335 +~ 0;
#X obj 129 335 +~ 0;
#X obj 228 256 - 100;
#X obj 308 256 - 100;
#X obj 228 282 / 100;
#X obj 308 282 / 100;
#X obj 60 214 *~ 0.2;
#X obj 129 215 *~ 0.2;
#X floatatom 278 167 8 2 10000 1 speed\ (ms) - - 0;
#X obj 228 194 metro 120;
#X obj 308 230 random 201;
#X obj 228 230 random 201;
#X text 392 230 random number 0 - 200;
#X text 392 255 subtract 100: number is now -100 to 100;
#X text 392 281 divide 100: number is now -1 to 1;
#X obj 228 106 loadbang;
#X msg 278 141 120;
#X connect 1 0 0 0;
#X connect 2 0 0 1;
#X connect 3 0 7 0;
#X connect 4 0 15 0;
#X connect 5 0 6 0;
#X connect 6 0 16 0;
#X connect 7 0 4 0;
#X connect 7 0 5 0;
#X connect 8 0 18 0;
#X connect 9 0 1 0;
#X connect 10 0 2 0;
#X connect 11 0 13 0;
#X connect 12 0 14 0;
#X connect 13 0 9 1;
#X connect 14 0 10 1;
#X connect 15 0 9 0;
#X connect 16 0 10 0;
#X connect 17 0 18 1;
#X connect 18 0 19 0;
#X connect 18 0 20 0;
#X connect 19 0 12 0;
#X connect 20 0 11 0;
#X connect 24 0 8 0;
#X connect 24 0 25 0;
#X connect 25 0 17 0;
