#N canvas 257 -941 706 693 12;
#N canvas 518 -626 546 271 cube_pts_arrays 0;
#X obj 227 39 loadbang;
#X obj 15 53 array define xpts 16;
#X obj 15 83 array define ypts 16;
#X obj 15 113 array define zpts 16;
#X obj 244 95 array set xpts;
#X obj 237 155 array set ypts;
#X obj 227 215 array set zpts;
#X msg 244 67 -1 -1 1 1 -1 -1 -1 -1 -1 1 1 1 1 1 1 -1;
#X msg 237 127 -1 1 1 -1 -1 -1 1 1 1 1 1 1 -1 -1 -1 -1;
#X msg 227 187 1 1 1 1 1 -1 -1 1 -1 -1 1 -1 -1 1 -1 -1;
#X connect 0 0 8 0;
#X connect 0 0 9 0;
#X connect 0 0 7 0;
#X connect 7 0 4 0;
#X connect 8 0 5 0;
#X connect 9 0 6 0;
#X restore 19 24 pd cube_pts_arrays;
#X obj 19 126 phasor~;
#X floatatom 19 95 5 0 0 1 frequency - - 0;
#X obj 19 152 *~ 16;
#N canvas 328 287 750 269 tabreadlin~ 0;
#X obj 197 72 tabread~ ypts;
#N canvas 92 117 321 196 lerp~ 0;
#X obj 114 47 inlet~ v0;
#X obj 216 47 inlet~ v1;
#X obj 12 47 inlet~ t;
#X obj 12 96 expr~ (1-$v1) * $v2 + $v1 * $v3;
#X obj 12 132 outlet~;
#X connect 0 0 3 1;
#X connect 1 0 3 2;
#X connect 2 0 3 0;
#X connect 3 0 4 0;
#X restore 27 180 pd lerp~;
#X obj 414 59 +~ 1;
#X obj 29 86 wrap~;
#N canvas 92 117 321 196 lerp~ 0;
#X obj 114 47 inlet~ v0;
#X obj 216 47 inlet~ v1;
#X obj 12 47 inlet~ t;
#X obj 12 96 expr~ (1-$v1) * $v2 + $v1 * $v3;
#X obj 12 132 outlet~;
#X connect 0 0 3 1;
#X connect 1 0 3 2;
#X connect 2 0 3 0;
#X connect 3 0 4 0;
#X restore 166 182 pd lerp~;
#X obj 414 130 tabread~ xpts;
#X obj 524 130 tabread~ ypts;
#X obj 88 72 tabread~ xpts;
#X obj 414 89 expr~ fmod($v1 \, 16);
#N canvas 92 117 321 196 lerp~ 0;
#X obj 114 47 inlet~ v0;
#X obj 216 47 inlet~ v1;
#X obj 12 47 inlet~ t;
#X obj 12 96 expr~ (1-$v1) * $v2 + $v1 * $v3;
#X obj 12 132 outlet~;
#X connect 0 0 3 1;
#X connect 1 0 3 2;
#X connect 2 0 3 0;
#X connect 3 0 4 0;
#X restore 396 182 pd lerp~;
#X obj 634 130 tabread~ zpts;
#X obj 297 72 tabread~ zpts;
#X obj 29 10 inlet~;
#X obj 27 206 outlet~ x;
#X obj 166 208 outlet~ y;
#X obj 396 208 outlet~ z;
#X connect 0 0 4 1;
#X connect 1 0 13 0;
#X connect 2 0 8 0;
#X connect 3 0 1 0;
#X connect 3 0 4 0;
#X connect 3 0 9 0;
#X connect 4 0 14 0;
#X connect 5 0 1 2;
#X connect 6 0 4 2;
#X connect 7 0 1 1;
#X connect 8 0 5 0;
#X connect 8 0 6 0;
#X connect 8 0 10 0;
#X connect 9 0 15 0;
#X connect 10 0 9 2;
#X connect 11 0 9 1;
#X connect 12 0 3 0;
#X connect 12 0 7 0;
#X connect 12 0 0 0;
#X connect 12 0 11 0;
#X connect 12 0 2 0;
#X restore 19 179 pd tabreadlin~;
#X obj 192 610 clip~ -1 1;
#X obj 272 610 clip~ -1 1;
#X floatatom 139 173 5 0 0 1 x_angle_freq - - 0;
#X obj 139 223 *~ 360;
#X obj 139 197 phasor~ 0.1;
#N canvas 63 88 450 300 scale~ 0;
#X obj 82 30 inlet~;
#X obj 81 192 outlet~;
#X obj 82 116 *~;
#X obj 290 30 inlet;
#X msg 290 56 \$1 15;
#X obj 290 82 vline~;
#X obj 142 30 inlet~;
#X obj 141 192 outlet~;
#X obj 142 116 *~;
#X obj 202 30 inlet~;
#X obj 201 192 outlet~;
#X obj 202 116 *~;
#X connect 0 0 2 0;
#X connect 2 0 1 0;
#X connect 3 0 4 0;
#X connect 4 0 5 0;
#X connect 5 0 11 1;
#X connect 5 0 8 1;
#X connect 5 0 2 1;
#X connect 6 0 8 0;
#X connect 8 0 7 0;
#X connect 9 0 11 0;
#X connect 11 0 10 0;
#X restore 19 529 pd scale~;
#N canvas 156 145 716 408 rotate 0;
#X obj 37 35 inlet~ x;
#X obj 38 329 outlet~ x;
#X obj 101 35 inlet~ y;
#X obj 165 35 inlet~ z;
#X obj 128 329 outlet~ y;
#X obj 250 329 outlet~ z;
#N canvas 730 -827 490 170 new_x 0;
#X obj 34 125 outlet~;
#X obj 34 27 inlet~;
#X obj 34 53 snake~ out 9, f 60;
#X obj 34 89 expr~ $v6 * $v8 * $v1 - $v6 * $v9 * $v2 + $v7 * $v3 \;, f 60;
#X connect 1 0 2 0;
#X connect 2 0 3 0;
#X connect 2 1 3 1;
#X connect 2 2 3 2;
#X connect 2 5 3 5;
#X connect 2 6 3 6;
#X connect 2 7 3 7;
#X connect 2 8 3 8;
#X connect 3 0 0 0;
#X restore 38 303 pd new_x;
#X f 11;
#N canvas 205 -802 500 179 new_y 0;
#X obj 34 125 outlet~;
#X obj 34 27 inlet~;
#X obj 34 53 snake~ out 9, f 60;
#X obj 34 83 expr~ ($v4 * $v9 + $v5 * $v7 * $v8) * $v1 + ($v4 * $v8 - $v5 * $v7 * $v9) * $v2 - $v5 * $v6 * $v3 \;;
#X connect 1 0 2 0;
#X connect 2 0 3 0;
#X connect 2 1 3 1;
#X connect 2 2 3 2;
#X connect 2 3 3 3;
#X connect 2 4 3 4;
#X connect 2 5 3 5;
#X connect 2 6 3 6;
#X connect 2 7 3 7;
#X connect 2 8 3 8;
#X connect 3 0 0 0;
#X restore 128 303 pd new_y;
#X f 16;
#N canvas 83 365 484 162 new_z 0;
#X obj 34 125 outlet~;
#X obj 34 27 inlet~;
#X obj 34 53 snake~ out 9, f 60;
#X obj 34 83 expr~ ($v5 * $v9 - $v4 * $v7 * $v8) * $v1 + ($v4 * $v7 * $v9 + $v5 * $v8) * $v2 + $v4 * $v6 * $v3 \;;
#X connect 1 0 2 0;
#X connect 2 0 3 0;
#X connect 2 1 3 1;
#X connect 2 2 3 2;
#X connect 2 3 3 3;
#X connect 2 4 3 4;
#X connect 2 5 3 5;
#X connect 2 6 3 6;
#X connect 2 7 3 7;
#X connect 2 8 3 8;
#X connect 3 0 0 0;
#X restore 250 303 pd new_z;
#X f 16;
#X obj 230 35 inlet~ ax;
#X obj 358 94 inlet~ ay;
#X obj 487 155 inlet~ az;
#X obj 37 260 snake~ in 9, f 74;
#X obj 230 59 expr~ ($v1 * 3.141592) / 180;
#X obj 358 120 expr~ ($v1 * 3.141592) / 180;
#X obj 487 181 expr~ ($v1 * 3.141592) / 180;
#X text 435 58 convert degrees to radians;
#N canvas 92 117 195 141 sin~ 0;
#X obj 22 16 inlet~;
#X obj 22 98 outlet~;
#X obj 22 42 expr~ sin($v1);
#X connect 0 0 2 0;
#X connect 2 0 1 0;
#X restore 288 181 pd sin~;
#N canvas 505 249 554 149 cos~ 0;
#X obj 35 38 inlet~;
#X obj 35 64 expr~ cos($v1);
#X obj 35 90 outlet~;
#X text 155 62 pd's built in cos is a wavetable reader \, and doesn't actually respond to angles.;
#X connect 0 0 1 0;
#X connect 1 0 2 0;
#X restore 230 181 pd cos~;
#N canvas 92 117 195 141 sin~ 0;
#X obj 22 16 inlet~;
#X obj 22 98 outlet~;
#X obj 22 42 expr~ sin($v1);
#X connect 0 0 2 0;
#X connect 2 0 1 0;
#X restore 412 191 pd sin~;
#N canvas 505 249 554 149 cos~ 0;
#X obj 35 38 inlet~;
#X obj 35 64 expr~ cos($v1);
#X obj 35 90 outlet~;
#X text 155 62 pd's built in cos is a wavetable reader \, and doesn't actually respond to angles.;
#X connect 0 0 1 0;
#X connect 1 0 2 0;
#X restore 354 191 pd cos~;
#N canvas 92 117 195 141 sin~ 0;
#X obj 22 16 inlet~;
#X obj 22 98 outlet~;
#X obj 22 42 expr~ sin($v1);
#X connect 0 0 2 0;
#X connect 2 0 1 0;
#X restore 545 211 pd sin~;
#N canvas 505 249 554 149 cos~ 0;
#X obj 35 38 inlet~;
#X obj 35 64 expr~ cos($v1);
#X obj 35 90 outlet~;
#X text 155 62 pd's built in cos is a wavetable reader \, and doesn't actually respond to angles.;
#X connect 0 0 1 0;
#X connect 1 0 2 0;
#X restore 487 211 pd cos~;
#X connect 0 0 12 0;
#X connect 2 0 12 1;
#X connect 3 0 12 2;
#X connect 6 0 1 0;
#X connect 7 0 4 0;
#X connect 8 0 5 0;
#X connect 9 0 13 0;
#X connect 10 0 14 0;
#X connect 11 0 15 0;
#X connect 12 0 6 0;
#X connect 12 0 7 0;
#X connect 12 0 8 0;
#X connect 13 0 18 0;
#X connect 13 0 17 0;
#X connect 14 0 20 0;
#X connect 14 0 19 0;
#X connect 15 0 22 0;
#X connect 15 0 21 0;
#X connect 17 0 12 4;
#X connect 18 0 12 3;
#X connect 19 0 12 6;
#X connect 20 0 12 5;
#X connect 21 0 12 8;
#X connect 22 0 12 7;
#X restore 19 274 pd rotate;
#X f 29;
#X floatatom 219 222 5 0 0 1 y_angle - - 0;
#X floatatom 219 248 5 0 0 1 z_angle - - 0;
#X obj 220 658 dac~;
#X floatatom 219 301 5 0 0 1 x_offset - - 0;
#N canvas 63 88 410 259 translate~ 0;
#X obj 52 30 inlet~;
#X obj 52 192 outlet~;
#X obj 230 31 inlet;
#X msg 230 57 \$1 15;
#X obj 230 83 vline~;
#X obj 112 30 inlet~;
#X obj 112 192 outlet~;
#X obj 172 30 inlet~;
#X obj 172 192 outlet~;
#X obj 280 31 inlet;
#X msg 280 57 \$1 15;
#X obj 280 83 vline~;
#X obj 330 31 inlet;
#X msg 330 57 \$1 15;
#X obj 330 83 vline~;
#X obj 172 156 +~;
#X obj 112 156 +~;
#X obj 52 156 +~;
#X connect 0 0 17 0;
#X connect 2 0 3 0;
#X connect 3 0 4 0;
#X connect 4 0 17 1;
#X connect 5 0 16 0;
#X connect 7 0 15 0;
#X connect 9 0 10 0;
#X connect 10 0 11 0;
#X connect 11 0 16 1;
#X connect 12 0 13 0;
#X connect 13 0 14 0;
#X connect 14 0 15 1;
#X connect 15 0 8 0;
#X connect 16 0 6 0;
#X connect 17 0 1 0;
#X restore 19 389 pd translate~;
#X floatatom 219 327 5 0 0 1 y_offset - - 0;
#X floatatom 219 353 5 0 0 1 z_offset - - 0;
#X obj 205 400 tgl 21 0 empty empty which_cube 25 11 0 12 #fcfcfc #000000 #000000 0 1;
#X obj 250 430 expr !$f1;
#X floatatom 529 243 5 0 0 1 x_angle_freq - - 0;
#X obj 529 293 *~ 360;
#X obj 529 267 phasor~ 0.1;
#N canvas 63 88 450 300 scale~ 0;
#X obj 82 30 inlet~;
#X obj 81 192 outlet~;
#X obj 82 116 *~;
#X obj 290 30 inlet;
#X msg 290 56 \$1 15;
#X obj 290 82 vline~;
#X obj 142 30 inlet~;
#X obj 141 192 outlet~;
#X obj 142 116 *~;
#X obj 202 30 inlet~;
#X obj 201 192 outlet~;
#X obj 202 116 *~;
#X connect 0 0 2 0;
#X connect 2 0 1 0;
#X connect 3 0 4 0;
#X connect 4 0 5 0;
#X connect 5 0 11 1;
#X connect 5 0 8 1;
#X connect 5 0 2 1;
#X connect 6 0 8 0;
#X connect 8 0 7 0;
#X connect 9 0 11 0;
#X connect 11 0 10 0;
#X restore 409 539 pd scale~;
#N canvas 156 145 716 408 rotate 0;
#X obj 37 35 inlet~ x;
#N canvas 92 117 195 141 sin~ 0;
#X obj 22 16 inlet~;
#X obj 22 98 outlet~;
#X obj 22 42 expr~ sin($v1);
#X connect 0 0 2 0;
#X connect 2 0 1 0;
#X restore 288 181 pd sin~;
#X obj 38 329 outlet~ x;
#X obj 101 35 inlet~ y;
#X obj 165 35 inlet~ z;
#X obj 128 329 outlet~ y;
#X obj 250 329 outlet~ z;
#N canvas 730 -827 490 170 new_x 0;
#X obj 34 125 outlet~;
#X obj 34 27 inlet~;
#X obj 34 53 snake~ out 9, f 60;
#X obj 34 89 expr~ $v6 * $v8 * $v1 - $v6 * $v9 * $v2 + $v7 * $v3 \;, f 60;
#X connect 1 0 2 0;
#X connect 2 0 3 0;
#X connect 2 1 3 1;
#X connect 2 2 3 2;
#X connect 2 5 3 5;
#X connect 2 6 3 6;
#X connect 2 7 3 7;
#X connect 2 8 3 8;
#X connect 3 0 0 0;
#X restore 38 303 pd new_x;
#X f 11;
#N canvas 205 -802 500 179 new_y 0;
#X obj 34 125 outlet~;
#X obj 34 27 inlet~;
#X obj 34 53 snake~ out 9, f 60;
#X obj 34 83 expr~ ($v4 * $v9 + $v5 * $v7 * $v8) * $v1 + ($v4 * $v8 - $v5 * $v7 * $v9) * $v2 - $v5 * $v6 * $v3 \;;
#X connect 1 0 2 0;
#X connect 2 0 3 0;
#X connect 2 1 3 1;
#X connect 2 2 3 2;
#X connect 2 3 3 3;
#X connect 2 4 3 4;
#X connect 2 5 3 5;
#X connect 2 6 3 6;
#X connect 2 7 3 7;
#X connect 2 8 3 8;
#X connect 3 0 0 0;
#X restore 128 303 pd new_y;
#X f 16;
#N canvas 83 365 484 162 new_z 0;
#X obj 34 125 outlet~;
#X obj 34 27 inlet~;
#X obj 34 53 snake~ out 9, f 60;
#X obj 34 83 expr~ ($v5 * $v9 - $v4 * $v7 * $v8) * $v1 + ($v4 * $v7 * $v9 + $v5 * $v8) * $v2 + $v4 * $v6 * $v3 \;;
#X connect 1 0 2 0;
#X connect 2 0 3 0;
#X connect 2 1 3 1;
#X connect 2 2 3 2;
#X connect 2 3 3 3;
#X connect 2 4 3 4;
#X connect 2 5 3 5;
#X connect 2 6 3 6;
#X connect 2 7 3 7;
#X connect 2 8 3 8;
#X connect 3 0 0 0;
#X restore 250 303 pd new_z;
#X f 16;
#X obj 230 35 inlet~ ax;
#X obj 358 94 inlet~ ay;
#X obj 487 155 inlet~ az;
#X obj 37 260 snake~ in 9, f 74;
#X obj 230 59 expr~ ($v1 * 3.141592) / 180;
#X obj 358 120 expr~ ($v1 * 3.141592) / 180;
#X obj 487 181 expr~ ($v1 * 3.141592) / 180;
#X text 435 58 convert degrees to radians;
#N canvas 505 249 554 149 cos~ 0;
#X obj 35 38 inlet~;
#X obj 35 64 expr~ cos($v1);
#X obj 35 90 outlet~;
#X text 155 62 pd's built in cos is a wavetable reader \, and doesn't actually respond to angles.;
#X connect 0 0 1 0;
#X connect 1 0 2 0;
#X restore 230 181 pd cos~;
#N canvas 92 117 195 141 sin~ 0;
#X obj 22 16 inlet~;
#X obj 22 98 outlet~;
#X obj 22 42 expr~ sin($v1);
#X connect 0 0 2 0;
#X connect 2 0 1 0;
#X restore 412 191 pd sin~;
#N canvas 505 249 554 149 cos~ 0;
#X obj 35 38 inlet~;
#X obj 35 64 expr~ cos($v1);
#X obj 35 90 outlet~;
#X text 155 62 pd's built in cos is a wavetable reader \, and doesn't actually respond to angles.;
#X connect 0 0 1 0;
#X connect 1 0 2 0;
#X restore 354 191 pd cos~;
#N canvas 92 117 195 141 sin~ 0;
#X obj 22 16 inlet~;
#X obj 22 98 outlet~;
#X obj 22 42 expr~ sin($v1);
#X connect 0 0 2 0;
#X connect 2 0 1 0;
#X restore 545 211 pd sin~;
#N canvas 505 249 554 149 cos~ 0;
#X obj 35 38 inlet~;
#X obj 35 64 expr~ cos($v1);
#X obj 35 90 outlet~;
#X text 155 62 pd's built in cos is a wavetable reader \, and doesn't actually respond to angles.;
#X connect 0 0 1 0;
#X connect 1 0 2 0;
#X restore 487 211 pd cos~;
#X connect 0 0 13 0;
#X connect 1 0 13 4;
#X connect 3 0 13 1;
#X connect 4 0 13 2;
#X connect 7 0 2 0;
#X connect 8 0 5 0;
#X connect 9 0 6 0;
#X connect 10 0 14 0;
#X connect 11 0 15 0;
#X connect 12 0 16 0;
#X connect 13 0 7 0;
#X connect 13 0 8 0;
#X connect 13 0 9 0;
#X connect 14 0 1 0;
#X connect 14 0 18 0;
#X connect 15 0 20 0;
#X connect 15 0 19 0;
#X connect 16 0 22 0;
#X connect 16 0 21 0;
#X connect 18 0 13 3;
#X connect 19 0 13 6;
#X connect 20 0 13 5;
#X connect 21 0 13 8;
#X connect 22 0 13 7;
#X restore 409 354 pd rotate;
#X f 29;
#X floatatom 609 302 5 0 0 1 y_angle - - 0;
#X floatatom 609 328 5 0 0 1 z_angle - - 0;
#X floatatom 498 150 5 0 0 1 x_offset - - 0;
#N canvas 63 88 410 259 translate~ 0;
#X obj 52 30 inlet~;
#X obj 52 192 outlet~;
#X obj 230 31 inlet;
#X msg 230 57 \$1 15;
#X obj 230 83 vline~;
#X obj 112 30 inlet~;
#X obj 112 192 outlet~;
#X obj 172 30 inlet~;
#X obj 172 192 outlet~;
#X obj 280 31 inlet;
#X msg 280 57 \$1 15;
#X obj 280 83 vline~;
#X obj 330 31 inlet;
#X msg 330 57 \$1 15;
#X obj 330 83 vline~;
#X obj 172 156 +~;
#X obj 112 156 +~;
#X obj 52 156 +~;
#X connect 0 0 17 0;
#X connect 2 0 3 0;
#X connect 3 0 4 0;
#X connect 4 0 17 1;
#X connect 5 0 16 0;
#X connect 7 0 15 0;
#X connect 9 0 10 0;
#X connect 10 0 11 0;
#X connect 11 0 16 1;
#X connect 12 0 13 0;
#X connect 13 0 14 0;
#X connect 14 0 15 1;
#X connect 15 0 8 0;
#X connect 16 0 6 0;
#X connect 17 0 1 0;
#X restore 409 226 pd translate~;
#X floatatom 498 175 5 0 0 1 y_offset - - 0;
#X floatatom 497 200 5 0 0 1 z_offset - - 0;
#X obj 409 46 phasor~;
#X floatatom 409 15 5 0 0 1 frequency - - 0;
#X obj 409 72 *~ 16;
#N canvas 328 287 750 269 tabreadlin~ 0;
#X obj 197 72 tabread~ ypts;
#N canvas 92 117 321 196 lerp~ 0;
#X obj 114 47 inlet~ v0;
#X obj 216 47 inlet~ v1;
#X obj 12 47 inlet~ t;
#X obj 12 96 expr~ (1-$v1) * $v2 + $v1 * $v3;
#X obj 12 132 outlet~;
#X connect 0 0 3 1;
#X connect 1 0 3 2;
#X connect 2 0 3 0;
#X connect 3 0 4 0;
#X restore 27 180 pd lerp~;
#X obj 414 59 +~ 1;
#X obj 29 86 wrap~;
#N canvas 92 117 321 196 lerp~ 0;
#X obj 114 47 inlet~ v0;
#X obj 216 47 inlet~ v1;
#X obj 12 47 inlet~ t;
#X obj 12 96 expr~ (1-$v1) * $v2 + $v1 * $v3;
#X obj 12 132 outlet~;
#X connect 0 0 3 1;
#X connect 1 0 3 2;
#X connect 2 0 3 0;
#X connect 3 0 4 0;
#X restore 166 182 pd lerp~;
#X obj 414 130 tabread~ xpts;
#X obj 524 130 tabread~ ypts;
#X obj 88 72 tabread~ xpts;
#X obj 414 89 expr~ fmod($v1 \, 16);
#N canvas 92 117 321 196 lerp~ 0;
#X obj 114 47 inlet~ v0;
#X obj 216 47 inlet~ v1;
#X obj 12 47 inlet~ t;
#X obj 12 96 expr~ (1-$v1) * $v2 + $v1 * $v3;
#X obj 12 132 outlet~;
#X connect 0 0 3 1;
#X connect 1 0 3 2;
#X connect 2 0 3 0;
#X connect 3 0 4 0;
#X restore 396 182 pd lerp~;
#X obj 634 130 tabread~ zpts;
#X obj 297 72 tabread~ zpts;
#X obj 29 10 inlet~;
#X obj 27 206 outlet~ x;
#X obj 166 208 outlet~ y;
#X obj 396 208 outlet~ z;
#X connect 0 0 4 1;
#X connect 1 0 13 0;
#X connect 2 0 8 0;
#X connect 3 0 1 0;
#X connect 3 0 4 0;
#X connect 3 0 9 0;
#X connect 4 0 14 0;
#X connect 5 0 1 2;
#X connect 6 0 4 2;
#X connect 7 0 1 1;
#X connect 8 0 5 0;
#X connect 8 0 6 0;
#X connect 8 0 10 0;
#X connect 9 0 15 0;
#X connect 10 0 9 2;
#X connect 11 0 9 1;
#X connect 12 0 3 0;
#X connect 12 0 7 0;
#X connect 12 0 0 0;
#X connect 12 0 11 0;
#X connect 12 0 2 0;
#X restore 409 99 pd tabreadlin~;
#X floatatom 261 457 5 0 0 1 size - - 0;
#X obj 205 486 * 0.3;
#X obj 250 486 * 0.3;
#X connect 1 0 3 0;
#X connect 2 0 1 0;
#X connect 3 0 4 0;
#X connect 4 0 11 0;
#X connect 4 1 11 1;
#X connect 4 2 11 2;
#X connect 5 0 14 0;
#X connect 6 0 14 1;
#X connect 7 0 9 0;
#X connect 8 0 11 3;
#X connect 9 0 8 0;
#X connect 10 0 5 0;
#X connect 10 1 6 0;
#X connect 11 0 16 0;
#X connect 11 1 16 1;
#X connect 11 2 16 2;
#X connect 12 0 11 4;
#X connect 13 0 11 5;
#X connect 15 0 16 3;
#X connect 16 0 10 0;
#X connect 16 1 10 1;
#X connect 16 2 10 2;
#X connect 17 0 16 4;
#X connect 18 0 16 5;
#X connect 19 0 20 0;
#X connect 19 0 37 0;
#X connect 20 0 38 0;
#X connect 21 0 23 0;
#X connect 22 0 25 3;
#X connect 23 0 22 0;
#X connect 24 0 5 0;
#X connect 24 1 6 0;
#X connect 25 0 24 0;
#X connect 25 1 24 1;
#X connect 25 2 24 2;
#X connect 26 0 25 4;
#X connect 27 0 25 5;
#X connect 28 0 29 3;
#X connect 29 0 25 0;
#X connect 29 1 25 1;
#X connect 29 2 25 2;
#X connect 30 0 29 4;
#X connect 31 0 29 5;
#X connect 32 0 34 0;
#X connect 33 0 32 0;
#X connect 34 0 35 0;
#X connect 35 0 29 0;
#X connect 35 1 29 1;
#X connect 35 2 29 2;
#X connect 36 0 37 1;
#X connect 36 0 38 1;
#X connect 37 0 10 3;
#X connect 38 0 24 3;
